<svg width="889" height="532" viewBox="0 0 889 532" fill="none" xmlns="http://www.w3.org/2000/svg">
<path d="M316.413 101.452C331.836 95.186 360.217 109.635 375.929 114.474C386.967 117.877 398.377 119.773 409.539 122.609C421.683 125.695 433.422 130.214 445.952 131.598C446.913 132.81 446.144 132.423 445.609 133.003C439.551 139.555 435.162 146.478 436.291 155.955C441.451 149.122 444.738 140.125 452.839 136.016C460.412 132.171 465.768 137.681 472.109 141.278C458.868 148.803 450.409 161.938 454.297 177.537C456.583 164.945 465.725 146.923 480.729 148.726L525.69 197.074C516.794 201.931 502.882 215.416 499.084 224.884C496.127 232.259 505.462 242.426 510.772 247.227C528.367 263.122 555.552 270.131 566.827 243.676C567.448 243.861 566.31 250.617 566.092 251.295C561.49 265.631 545.714 272.573 531.737 272.864C504.22 273.434 476.134 255.218 458.002 235.363C447.462 223.821 436.672 212.751 442.874 196.131L442.856 196.102C440.331 198.359 438.048 200.94 435.86 203.522C434.416 205.228 430.86 212.317 428.089 211.039C426.37 207.514 424.666 204.124 423.609 200.17C422.553 196.215 422.873 191.961 422.327 187.96C418.703 194.617 415.478 202.379 417.709 210.093L416.756 211.154C416.28 210.494 415.622 210.082 414.848 209.85C397.942 204.82 381.649 200.222 366.505 190.626C363.025 188.422 350.312 177.91 348.293 177.524C347.679 177.407 346.882 177.508 347.099 178.238L349.496 179.636C345.394 181.628 350.674 185.239 352.166 187.728L361.021 196.174L341.312 190.7L306.831 171.508C326.412 192.996 353.506 205.133 380.837 212.737C383.014 213.343 387.195 212.624 386.968 216.409C386.678 221.293 362.166 229.657 356.94 230.923L342.062 233.9C359.493 238.003 377.751 237.207 394.864 232.195C392.448 238.259 390.534 244.521 387.789 250.455C368.015 293.169 324.337 316.02 279.308 322.512C317.916 325.875 357.636 311.05 382.792 281.152C377.534 301.751 363.414 320.497 348.266 335.062C334.583 348.222 318.614 358.298 302.717 368.539C306.033 368.583 309.843 366.975 312.993 365.827C343.295 354.776 366.922 332.301 390.897 311.647C390.157 334.124 385.832 357.463 379.067 378.836C377.28 384.496 372.143 394.273 371.295 399.176C371.157 399.991 371.762 401.656 371.517 402.766C384.339 386.377 394.768 367.309 399.297 346.763C403.238 361.467 413.405 373.953 426.864 380.836C432.676 383.804 439.076 385.162 444.93 387.97L449.503 433.695C451.046 429.367 452.886 425.003 454.222 420.603C456.756 412.264 457.624 401.777 460.625 394.081C461.093 392.891 461.981 390.62 463.212 390.189L497.729 392.661C495.579 404.583 500.648 415.023 509.133 423.251C502.512 426.034 495.94 428.997 489.142 431.348C481.81 433.886 474.636 434.846 467.522 436.994C411.372 453.944 358.359 486.509 297.176 476.065C259.276 469.599 236.766 449.657 229.138 411.027C223.707 383.521 215.814 359.121 195.406 338.175C192.788 335.49 191.647 333.102 187.841 335.348C199.021 353.987 207.348 374.259 212.391 395.339C214.448 403.944 215.302 412.837 217.365 421.438C221.738 439.659 229.345 458.451 243.918 470.854C238.326 471.597 232.636 469.757 227.429 467.52C222.221 465.282 215.306 461.76 211.676 457.5C210.677 458.085 211.702 460.147 212.044 460.877C216.538 470.346 223.942 475.321 233.09 479.505C214.063 483.311 195.748 490.695 178.011 498.529C155.676 517.621 138.687 531.158 121.834 531.158C87.9914 531.158 85.3137 519.551 82.1855 516.448C37.8889 472.472 4.32607 417.641 0 355.176C0.000178127 348.407 5.70215 333.578 20.3057 328.102C74.4537 307.796 104.77 291.229 154.167 266.075C153.826 273.747 155.513 281.423 157.781 288.764C160.609 276.754 160.749 263.499 171.957 255.797L171.622 265.04C174.169 297.362 195.539 323.222 227.321 329.767L238.321 330.994C226.604 323.154 212.976 316.183 202.56 307.088C192.143 297.993 189.461 293.993 186.903 280.328C173.308 207.714 249.777 176.987 287.276 130.074C296.195 118.913 301.952 107.331 316.413 101.452ZM585.785 312.547C605.363 312.244 619.774 313.46 624.942 336.059C630.259 359.339 628.734 369.548 608.13 382.955C583.787 398.792 557.479 408.225 529.354 414.414C527.597 414.797 521.296 416.517 520.264 416.441C513.99 416.002 507.828 397.328 517.925 394.592C523.719 393.021 537.678 396.674 544.449 397.153C558.981 398.181 571.554 394.239 585.53 391.166L585.547 391.181C585.026 389.388 584.427 390.421 583.538 390.278C570.717 388.199 557.665 386.733 545.302 382.447C538.568 380.115 529.901 376.613 526.059 370.397C505.095 376.289 480.54 375.276 459.084 371.436C448.614 369.566 435.285 367.044 428.673 357.839C429.831 357.53 430.51 359.281 431.891 359.946C437.793 362.798 464.4 360.883 470.241 357.847C482.638 351.408 481.9 327.085 467.182 323.295C457.268 324.006 445.919 321.516 436.271 322.138C430.658 322.5 427.748 323.462 425.112 328.845C424.576 329.931 422.021 338.287 423.13 338.646C425.441 333.291 426.78 330.663 432.832 329.472C436.81 328.687 462.074 328.986 465.356 330.232C473.388 333.278 472.152 348.086 465.234 351.848C461.147 354.072 439.145 355.822 434.192 354.972C423.224 353.086 417.261 336.47 421.441 326.83C424.692 319.333 430.029 319.259 437.179 318.641C453.663 317.213 471.628 318.089 488.356 317.385C520.775 316.016 553.351 313.054 585.785 312.547ZM573.657 215.757C590.56 211.93 607.756 209.884 625.131 210.478C656.393 211.543 673.348 217.399 673.308 253.365C673.285 273.7 664.411 282.213 646.476 290.321C638.033 294.14 625.398 299.549 616.386 296.614C617.795 296.48 618.765 294.432 619.299 294.124L628.495 288.815C627.941 287.321 627.893 287.883 626.966 287.907C621.52 288.038 613.624 290.078 607.641 290.606C573.56 293.606 541.851 290.409 507.646 295.632C488.512 298.556 453.479 308.989 435.993 302.009C412.93 292.796 408.01 255.144 434.65 247.63C439.407 246.291 445.658 245.457 448.809 250.257C417.946 245.635 415.261 294.695 443.929 298.626C457.123 300.434 481.801 289.903 482.041 274.247C508.482 290.215 542.105 299.495 566.86 275.234C578.545 263.78 583.363 242.939 579.005 227.06C578.014 223.466 576.267 218.208 573.657 215.757ZM441.181 257.282C443.727 256.691 455.219 256.661 457.484 257.487C458.455 257.839 470.804 266.594 471.273 267.298C475.717 273.926 472.037 283.173 465.651 286.964C450.241 296.117 429.588 295.874 428.746 273.288C428.418 264.444 432.465 259.3 441.181 257.282ZM528.948 199.99C539.059 209.542 550.645 217.099 561.715 225.394C566.599 235.045 561.378 248.173 552.112 252.923C537.351 260.486 512.245 245.897 506.884 231.557C505.029 226.576 512.634 217.852 515.884 214.329C520.247 209.596 526.513 205.897 528.948 199.99ZM661.537 71.541C670.168 66.8142 695.164 71.9364 706.05 72.8145C712.662 73.3461 719.28 73.4902 725.896 73.8916C722.853 82.899 722.927 92.7136 727.522 101.332L729.178 84.3721C732.345 72.3746 739.149 70.2928 750.503 71.2686C735.465 89.1363 738.897 112.745 761.78 122.317C752.187 124.035 741.85 125.27 732.782 120.608L726.035 116.581L731.92 126.774C711.8 127.358 692.151 133.61 671.955 131.815C660.607 119.628 659.257 101.245 660.681 85.5693C651.334 97.9765 652.791 116.914 658.349 130.869C657.281 131.062 655.535 129.423 654.628 128.756C644.234 121.07 638.895 106.781 637.241 94.2979C636.041 94.0008 634.546 101.754 634.407 102.857C632.792 115.598 637.309 125.421 647.718 133.01C620.823 134.356 595.083 143.676 568.21 145.361C567.166 145.157 566.331 144.615 565.579 143.874C560.901 139.252 556.46 130.792 552.316 125.342C544.853 115.525 535.871 106.64 525.046 100.715L527.069 103.535L525.117 104.278C533.76 113.494 540.751 124.657 546.57 135.887C551.979 146.323 559.633 163.679 561.144 175.215C561.911 181.039 560.448 186.313 560.741 192.027C550.347 193.536 543.19 187.539 535.65 181.331L531.026 146.027L526.591 172.572C515.03 162.907 505.702 150.999 494.986 140.454C492.69 138.19 487.026 134.337 485.608 132.39C484.627 131.046 484.642 128.895 483.828 127.294C481.789 123.283 479.126 120.231 478.618 115.528C475.889 117.967 476.82 121.827 476.844 124.787C476.851 125.718 476.729 125.533 475.908 125.879C462.316 116.299 444.123 115.714 428.403 112.15C420.771 110.426 413.191 107.902 405.689 105.678C430.793 93.9666 457.53 88.4427 485.009 86.3682C499.708 85.2603 514.518 86.0154 529.202 84.8682C570.179 81.6599 610.943 74.3296 651.842 70.2871L652.947 70.832C647.936 76.5796 645.088 87.5537 647.125 94.9873C649.279 87.1402 654.087 75.6267 661.537 71.541ZM657.613 148.122C666.469 146.031 680.343 149.989 689.808 150.145C695.12 150.235 701.965 149.689 707.248 148.934C709.162 148.66 709.107 148.675 707.562 149.671C685.549 158.471 663.699 167.761 641.334 175.637C633.386 178.435 588.987 193.596 583.812 191.459C580.637 190.151 578.863 181.982 578.352 178.671C577.144 182.814 575.509 187.627 577.957 191.689L568.737 191.848C567.217 184.459 565.544 171.34 573.539 167.115C577.407 165.074 587.468 162.727 592.17 161.499C604.624 158.242 617.621 155.966 630.16 152.939C634.981 152.794 644.141 158.987 646.29 163.422C647.057 163.299 646.328 160.762 646.259 160.642L640.894 151.348C647.414 147.351 653.877 156.092 660.94 156.57C660.434 153.953 658.241 151.893 657.247 149.501C656.938 148.76 656.31 148.427 657.613 148.122ZM847.33 60.1416C855.285 55.9164 858.558 46.6644 869.688 51.6377C883.295 57.7081 876.216 68.2876 864.925 70.7773C874.206 72.8218 882.434 69.7662 887.146 80.6279C891.127 89.8099 885.233 97.5935 876.507 100.497C869.769 102.748 862.841 100.641 856.328 100.651C830.597 100.71 804.153 106.112 780.645 116.639C778.732 116.368 772.148 110.144 774.151 108.804C777.48 108.801 781.68 108.773 784.305 106.522C775.343 107.1 767.13 103.672 764.046 94.4121C760.069 82.4542 774.273 82.1993 782.195 80.959C782.575 79.3322 774.907 78.9803 773.904 78.999C770.396 79.0741 767.055 80.331 763.551 80.1396C761.672 60.663 782.52 70.739 793.18 70.7725C805.153 70.8069 837.144 65.5589 847.33 60.1416ZM801.795 14.665C810.847 7.9656 819.117 -3.13603 831.973 0.835938C846.408 5.28971 838.074 18.9594 831.46 26.8193C836.763 23.6341 849.596 31.5276 847.378 37.835C844.092 47.1739 825.293 45.4928 817.61 46.1006C798.587 47.5971 781.082 46.4769 762.422 47.6582C757.432 47.9764 752.419 50.0407 747.267 48.5908C745.371 44.5906 759.976 39.8062 762.592 38.4922C776.652 31.4151 789.105 24.0578 801.795 14.665Z" fill="white"/>
</svg>
