<svg width="1000" height="613" viewBox="0 0 1000 613" fill="none" xmlns="http://www.w3.org/2000/svg">
<path d="M984.248 68.0855C998.688 83.2069 1010.39 126.126 985.506 135.64C960.627 145.154 929.851 140.41 904.323 145.898C883.934 150.296 866.049 163.77 845.621 166.746C839.328 167.663 829.908 166.521 824.887 169.869C821.549 172.101 819.27 176.633 816.568 179.463C794.218 203.009 760.211 211.154 731.091 223.259C730.151 234.766 738.179 234.248 745.797 238.46C768.398 250.95 771.418 275.586 768.451 299.278C765.271 324.697 750.99 342.516 726.653 350.369C721.844 351.923 709.802 353.079 707.669 357.239C704.688 363.032 708.371 364.308 710.769 368.586C724.679 393.461 717.512 424.966 697.004 443.542C664.904 472.602 628.963 474.064 591.033 487.405C578.845 491.683 568.234 499.217 556.244 503.669C543.976 508.226 530.265 510.352 517.639 514.113C453.811 533.088 398.964 568.738 328.683 555.158C314.15 552.355 304.36 546.149 288.634 547.518C273.849 548.794 235.96 564.566 223.149 572.858C209.265 581.853 198.693 595.898 182.981 604.323C158.843 617.265 128.426 614.807 104.354 602.768C83.0648 592.125 48.9777 542.827 37.1207 521.381C19.5273 489.544 -5.29943 426.64 0.993373 390.577C6.08061 361.424 34.6433 356.441 57.5624 346.329C106.461 324.75 152.882 298.122 201.754 276.516C203.052 267.201 204.774 261.527 209.358 253.422C231.019 215.114 270.445 189.628 301.233 159.545C332.022 129.461 340.487 95.6043 394.287 110.699C404.475 113.556 426.546 124.186 435.661 123.681C440.271 123.429 450.618 117.237 455.718 115.177C512.95 92.0565 563.186 96.7072 622.471 90.4221C659.406 86.5023 697.918 76.1644 735.119 77.7723C748.274 78.3436 760.701 80.6291 774.201 79.8186C779.182 79.5129 798.709 76.5099 802.3 74.1181C804.326 72.7628 805.678 68.9227 807.599 66.8099C822.715 50.2402 842.984 42.4669 861.081 30.0961C873.879 21.3395 885.431 8.47706 900.335 3.6935C914.338 -0.784443 935.363 -3.4154 946.067 8.99528C952.678 16.6756 952.095 24.9936 955.023 33.8964C957.222 40.5668 962.442 51.4361 967.953 55.4755C973.464 59.515 979.492 63.0628 984.235 68.0457L984.248 68.0855ZM928.182 43.9286L935.482 30.9997C938.648 23.9306 935.071 18.0442 928.036 15.8251C913.901 11.3605 904.044 24.3027 893.936 31.8501C883.126 39.929 869.984 48.0876 857.968 54.2398C853.463 56.5519 838.122 62.2788 836.056 65.4812C835.539 66.2917 835.221 66.8232 835.433 67.8331C842.11 69.7332 848.906 66.9029 855.61 66.4777C864.499 65.9197 873.879 66.0924 882.768 65.8134C895.499 65.4147 932.514 67.3016 941.655 60.4318C951.446 53.0705 936.29 40.9521 928.182 43.9153V43.9286ZM959.977 91.7642C972.02 89.9703 978.763 77.2142 964.8 71.3144C952.996 66.3316 950.651 74.065 942.583 79.2871C931.706 86.3428 895.42 92.4684 882.145 92.4817C870.805 92.4817 846.773 80.7753 849.423 102.315C854.179 102.58 858.021 100.76 862.922 101.066C863.651 101.105 871.11 102.208 869.215 103.71C856.683 103.657 841.951 108.201 852.099 123.203C856.166 129.196 864.194 131.694 871.202 130.963C868.818 134.178 864.155 133.62 860.604 133.62C859.491 136.238 865.718 142.191 867.546 142.244C868.42 142.271 876.873 138.284 878.82 137.593C897.089 131.069 918.326 125.94 937.76 124.957C948.69 124.399 966.601 127.88 975.663 123.11C984.115 118.658 987.507 110.3 983.042 101.517C978.578 92.7342 971.702 93.9035 963.7 93.0132C962.932 92.9335 960.07 92.7076 959.977 91.7775V91.7642ZM807.625 95.7505C800.061 94.7938 792.364 95.1259 784.772 94.4217C772.571 93.279 746.062 87.1932 736.126 94.1294C729.727 98.6073 724.242 110.819 722.825 118.34C721.659 118.034 721.513 115.004 721.487 114.048C721.341 108.826 722.732 103.391 724.706 98.6206C725.501 96.7072 727.726 94.0497 728.124 92.7475C728.574 91.2858 726.759 91.6712 725.792 91.7376C685.174 94.3154 643.522 103.63 602.599 107.045C553.343 111.151 511.506 106.593 464.515 128C463.932 128.265 459.295 129.913 460.514 130.963C468.37 132.557 475.868 135.481 483.698 137.288C497.569 140.477 512.685 141.247 525.893 146.788C528.755 147.998 533.617 151.559 535.723 152.21C536.955 152.595 536.611 151.984 536.703 151.24C537.088 148.356 535.471 142.417 539.353 141.593C539.273 143.241 539.724 144.742 540.36 146.23C541.181 148.144 546.639 159.757 547.302 160.528C549.329 162.893 554.336 165.737 556.933 168.142C562.524 173.311 567.187 179.636 572.46 185.123C574.632 187.382 589.43 202.756 590.702 202.69C591.762 202.092 591.484 201.268 591.696 200.391C593.365 193.667 593.869 185.655 595.22 178.679C595.392 177.815 595.299 175.463 596.319 175.476L601.128 213.187C609.223 219.472 617.026 226.182 628.128 224.641C628.883 215.22 629.479 207.327 627.134 198.066C625.174 190.359 621.385 181.203 618.099 173.909C611.011 158.11 601.605 141.885 589.709 129.289L591.696 128.292L590.371 125.648L603.275 134.298C615.847 143.227 621.915 159.186 631.466 169.803C636.381 175.277 640.131 173.483 646.927 172.726C672.27 169.896 697.216 161.099 722.851 160.182L714.624 152.157C707.272 142.882 706.079 128.877 711.259 118.326C713.75 128.544 716.466 139.839 723.169 148.223C724.03 149.313 733.118 158.588 734.099 157.512C728.919 141.38 727.011 124.16 736.099 109.025C737.252 108.865 736.722 110.54 736.748 111.337C737.199 123.88 736.165 133.448 741.067 145.553C742.14 148.197 747.029 157.458 749.347 158.508C751.149 159.319 765.232 159.026 768.199 158.854C783.567 157.937 798.736 153.193 814.236 153.539L808.937 142.922C812.13 143.998 814.647 146.416 817.76 147.692C826.941 151.452 837.195 150.27 846.694 148.569C822.86 138.298 818.449 111.882 834.77 92.4285C812.275 89.5983 810.381 107.297 810.262 124.97C804.101 116.612 805.479 105.357 807.625 95.7372V95.7505ZM204.841 308.685C204.403 304.141 205.159 299.012 204.841 294.401C197.289 299.729 194.719 307.024 192.573 315.648C192.043 317.814 190.665 328.404 190.255 328.949C189.327 330.145 189.102 328.67 188.863 328.019C186.28 321.003 186.002 313.044 185.286 305.696C148.126 324.976 110.912 344.15 72.3207 360.481C49.3089 370.221 16.4803 375.057 18.0303 407.001C20.6137 460.178 53.2435 518.112 87.2379 557.497C93.756 565.044 107.547 581.481 114.794 586.996C126.306 595.765 152.06 596.735 165.256 591.885C186.797 583.953 199.833 564.872 218.499 555.597C234.596 547.598 253.434 542.15 271.067 538.881C267.822 536.091 263.781 534.722 260.244 532.131C254.799 528.145 249.182 521.78 247.883 514.976L256.283 520.823C264.616 525.168 273.2 529.925 282.977 528.915C267.212 514.711 258.733 494.234 254.15 473.785C247.446 443.768 244.267 423.624 230.33 395.361C228.674 392.012 223.732 385.063 222.99 382.113C222.209 378.99 226.634 379.934 228.343 381.409C236.53 388.425 247.658 405.26 252.414 415.066C272.723 456.936 262.297 502.832 312.547 526.165C383.477 559.092 463.8 510.578 531.378 490.713C537.816 488.813 544.506 487.883 550.932 485.744C553.29 484.96 571.758 477.904 571.771 476.761C563.133 468.523 556.986 455.939 559.861 443.887L522.448 441.243C519.242 441.854 517.361 451.515 516.593 454.637C513.983 465.227 512.91 474.197 508.697 484.588C508.326 485.478 507.889 487.577 506.882 487.737L501.914 438.572C494.906 435.078 487.248 433.443 480.36 429.63C468.847 423.252 460.117 412.741 454.884 400.702C454.287 399.321 452.91 392.172 451.876 395.706C451.161 398.151 450.856 400.756 450.088 403.214C444.298 421.591 434.442 439.821 422.095 454.531C421.949 445.429 427.593 437.244 430.507 428.766C438.416 405.792 442.113 379.788 443.278 355.551C414.517 379.788 385.663 408.423 347.906 417.325L374.601 399.267C400.434 380.16 425.473 354.98 434.005 322.983C406.489 354.289 367.155 369.104 325.702 367.497C324.907 367.47 323.238 368.002 323.397 366.845C371.978 359.617 419.75 333.733 440.549 287.345C442.271 283.519 446.736 273.128 447.266 269.5C447.478 268.065 447.398 268.61 446.59 268.822C428.268 273.686 409.536 274.975 390.962 270.497L408.039 266.71C414.649 264.358 421.485 262.325 427.844 259.335C430.759 257.966 441.516 253.169 438.708 249.037C407.416 240.466 375.475 227.976 353.205 203.42C354.729 203.54 356.279 204.563 357.63 205.294C374.124 214.13 390.22 225.93 409.191 228.667C409.589 228.72 410.278 228.853 410.172 228.335C407.323 225.93 396.539 216.469 396.91 213.081C397.188 210.569 399.944 212.018 395.612 209.068C396.924 208.164 399.003 209.732 400.183 210.463C406.475 214.303 412.304 220.203 418.849 224.295C435.237 234.553 453.532 238.686 471.457 245.263C473.086 245.144 471.709 239.271 471.748 237.623C471.868 231.378 474.848 226.262 477.087 220.708L479.406 234.646C479.644 236.148 483.539 245.21 484.109 245.33C487.566 246.087 490.481 239.231 492.322 236.985C494.522 234.328 496.906 231.537 499.582 229.331C494.402 245.303 503.106 257.315 513.162 268.543C531.219 288.714 557.98 308.606 585.443 312.313C607.223 315.249 633.069 307.237 635.388 282.163C634.884 281.22 634.142 283.053 633.944 283.372C630.539 288.701 628.711 292.807 623.014 296.328C605.01 307.436 580.21 293.444 568.141 279.173C564.272 274.603 559.212 267.454 560.841 261.209C562.789 253.754 574.42 241.941 580.395 236.972L589.669 229.69C573.294 212.456 557.728 194.398 540.863 177.656C528.847 175.623 520.673 186.93 516.248 196.551L512.181 208.084C508.313 191.528 517.745 177.47 531.364 169.218C521.256 161.312 513.003 158.588 503.57 169.245L492.958 184.831C490.865 174.786 497.132 167.225 503.146 160.249C503.504 159.837 503.888 159.292 503.544 158.933C503.067 158.415 495.82 157.644 494.243 157.286C474.968 152.887 453.652 147.307 434.508 142.124C415.365 136.942 381.569 119.376 363.128 125.395C346.74 130.737 337.003 149.805 326.351 162.255C291.774 202.716 227.269 234.314 220.116 292.222C218.38 306.214 220.102 330.105 229.296 341.32C241.869 356.654 260.774 364.613 276.34 376.173C243.67 375.057 216.34 352.415 207.636 321.176C206.695 317.787 205.119 312.06 204.801 308.739L204.841 308.685ZM789.078 177.47C781.275 178.333 773.432 179.29 765.536 178.825C754.726 178.187 743.531 174.015 732.787 177.124L737.411 186.093C729.965 185.402 722.811 175.503 715.565 180.446C718.254 184.233 720.573 188.366 722.176 192.737L712.438 184.897C709.762 183.409 707.126 181.987 703.96 182.054C696.845 182.213 679.027 187.183 671.157 189.07C665.103 190.531 658.545 191.953 652.623 193.734C645.456 195.886 638.501 197.056 636.355 205.321C635.375 209.081 635.348 220.083 636.858 223.485C637.799 225.598 644.118 223.099 646.662 223.95C645.297 219.631 645.271 214.662 647.655 210.676C648.212 213.599 649.841 221.611 652.239 223.352C654.637 225.093 660.506 223.485 663.222 222.98C692.699 217.452 723.58 202.743 751.97 193.069L789.065 177.47H789.078ZM593.034 233.969C592.941 234.035 592.716 235.523 592.252 236.161C586.065 244.533 576.037 250.073 571.254 259.641C568.194 265.779 569.174 268.264 572.844 273.765C581.283 286.429 604.427 298.268 619.093 291.013C628.101 286.548 634.712 271.812 629.956 262.338C628.366 259.176 607.276 244.984 602.639 241.237C601.036 239.935 594.359 233.052 593.047 233.969H593.034ZM505.57 286.442C505.412 286.256 501.795 284.555 501.238 284.475C481.565 281.233 468.781 300.288 471.96 318.492C479.777 363.112 536.558 343.313 565.73 338.463C602.029 332.444 636.872 335.792 672.827 332.935C682.392 332.178 691.785 330.105 701.297 328.949C702.039 329.72 702.688 329.706 701.628 330.597C699.548 332.351 695.64 333.679 693.215 335.447C691.149 336.948 687.863 339.167 692.01 339.619C705.231 341.067 734.655 328.019 742.988 317.601C754.978 302.626 753.6 267.042 738.391 254.551C721.116 240.373 675.013 244.293 653.829 248.107C652.253 248.386 642.714 250.007 642.701 250.884C655.392 268.862 650.491 299.45 635.745 315.01C610.389 341.758 570.168 331.886 542.665 314.333C541.3 332.284 517.004 342.33 501.238 340.935C470.953 338.264 472.318 284.303 505.239 287.757C505.809 287.837 505.637 286.522 505.57 286.442ZM498.125 295.903C478.995 298.68 481.009 328.391 497.476 333.414C507.24 336.39 523.959 331.713 529.96 323.182C533.087 318.731 534.398 311.09 530.742 306.679C529.669 305.377 516.951 296.222 515.665 295.889C513.135 295.212 501.079 295.477 498.112 295.903H498.125ZM590.914 419.372C598.161 430.135 613.462 433.124 625.333 436.367L655.247 441.562C655.22 442.24 644.847 444.552 643.35 444.897C631.89 447.515 620.404 449.442 608.574 448.538C600.916 447.953 587.337 443.276 580.409 446.226C572.023 449.8 576.222 467.42 584.197 469.679C615.86 463.062 647.457 453.348 675.079 436.207C696.554 422.88 704.49 413.964 699.442 387.295C693.096 353.677 674.469 355.498 644.966 356.175C614.827 356.88 584.383 360.361 554.27 361.544C536.505 362.248 518.275 361.318 500.589 362.182C496.217 362.394 488.693 362.899 484.652 364.135C468.039 369.211 475.312 400.902 491.302 402.709C497.529 403.413 517.573 401.845 523.23 399.52C532.901 395.534 533.511 376.306 521.693 374.885C518.713 374.526 514.274 374.26 511.201 374.114C504.113 373.782 486.904 372.878 481.989 378.1L478.386 384.106C478.227 378.964 480.81 370.965 485.434 368.267C491.21 364.879 510.525 367.55 517.798 368.161C523.522 368.639 527.231 366.859 532.358 370.832C541.95 378.26 541.486 398.909 530.795 405.141C524.157 409.021 495.82 411.067 488.957 408.383C487.301 407.732 486.732 406.071 484.996 406.057C491.581 414.867 503.08 417.697 513.347 419.81C538.585 425.006 565.836 425.829 590.888 419.412L590.914 419.372Z" fill="black"/>
</svg>
