<svg width="263" height="164" viewBox="0 0 263 164" fill="none" xmlns="http://www.w3.org/2000/svg">
<g clip-path="url(#clip0_257_129)">
<path d="M92.7722 96.624C92.7745 103.879 92.7768 111.136 92.7791 118.391C92.7814 121.375 92.4816 124.679 93.4633 127.401C93.5891 127.753 94.0491 127.682 94.1521 128.294C94.2573 128.922 94.1154 129.717 93.8065 130.217C93.5296 130.502 92.0903 130.443 91.548 130.448C89.77 130.459 87.8387 130.215 86.0241 130.048C85.3788 129.989 85.0538 130.491 84.4017 129.918C82.642 128.365 84.2804 125.127 84.5275 123.165C85.095 118.697 84.3582 113.435 84.2895 108.64C84.1522 98.9989 84.6442 89.0701 84.3948 79.34C84.3719 78.4586 84.3216 77.0976 84.0607 76.2847C83.6236 74.9214 81.626 72.5854 84.3376 72.0008C86.8501 71.4573 90.0171 71.5327 92.6624 71.8752C92.9736 71.9163 93.2596 71.9323 93.4656 72.268C97.0445 83.1124 100.589 93.9683 104.111 104.831C104.095 96.6057 104.568 88.3348 104.234 80.1644C104.193 79.1802 104.074 77.5246 103.937 76.5861C103.69 74.9031 101.896 72.2154 103.989 71.793C104.365 71.7176 105.859 71.7085 106.397 71.6925C107.854 71.6491 109.17 71.9346 110.522 71.9734C111.419 71.9985 113.168 71.0577 113.742 72.5283C114.234 73.7888 113.104 75.6247 112.82 76.9743C111.307 84.1857 112.413 91.8537 112.397 99.1268C112.378 108.649 112.216 118.251 112.243 127.799C112.246 128.678 112.85 130.639 111.797 131.185C111.653 131.26 109.463 131.699 109.159 131.717C108.152 131.781 105.243 131.667 104.468 131.057C103.328 130.16 102.967 126.751 102.507 125.353C99.6668 116.742 96.9895 108.039 94.0834 99.4556C93.7699 98.5308 93.4724 97.2337 92.7699 96.6309L92.7722 96.624Z" fill="#14000A"/>
<path d="M197.567 103.913C199.262 110.364 200.974 116.813 202.702 123.255C203.178 124.675 204.674 126.07 203.919 127.756C200.898 128.02 197.91 128.934 194.924 128.918C194.512 128.918 194.038 128.772 193.894 128.409C193.189 126.637 193.487 123.903 193.162 121.752C192.624 118.199 191.656 114.491 190.542 111.004C190.29 110.218 189.608 108.311 189.045 107.834C188.521 107.391 186.825 107.492 186.475 108.181C186.4 108.33 186.187 110.501 186.182 110.876C186.114 115.454 186.366 120.165 187.162 124.659C187.432 126.182 188.677 128.543 186.983 129.301C184.887 130.24 181.247 130.361 178.686 130.27C175.565 130.158 177.464 125.301 177.661 123.513C178.004 120.398 177.791 116.943 177.807 113.678C177.865 102.068 178.688 89.9107 177.675 78.6895C177.494 76.6777 176.302 73.5036 177.139 72.1221C177.807 71.0214 179.734 71.6014 180.977 71.606C187.636 71.6265 196.569 70.1285 200.722 76.5521C204.34 82.149 203.731 92.3541 201.413 98.4945C200.688 100.417 199.288 102.698 197.571 103.911L197.567 103.913ZM187.208 80.24C186.187 80.5917 186.656 83.5671 186.599 84.6655C186.43 87.8761 186.4 91.105 186.352 94.3202C186.334 95.5624 185.965 98.2638 187.171 98.4762C189.242 98.8393 191.99 98.394 193.093 96.6448C195.159 93.3634 195.205 86.6521 193.72 82.8866C193.134 81.4 191.336 80.4067 189.837 80.1875C189.48 80.1349 187.457 80.1532 187.21 80.24H187.208Z" fill="#14000A"/>
<path d="M77.841 61.3703C77.7014 61.5507 77.3079 61.6351 77.0836 61.6671C74.1248 62.0896 71.2805 62.4458 68.4064 62.2791C66.1021 62.1444 67.6627 59.0639 67.8252 57.4243C68.5986 49.6307 67.8938 41.5858 67.8389 33.7282C67.784 26.0533 68.5689 18.1934 67.8458 10.482C67.6833 8.73735 66.3355 7.4837 67.276 5.72995C69.3309 4.40094 72.5253 4.80056 74.8113 4.58362C80.6144 4.0333 87.3718 2.61295 91.0353 8.63003C94.1016 13.6675 93.6394 22.0594 92.4335 27.3207C91.6829 30.5952 90.2253 33.7807 87.6075 36.2698C87.5663 36.4182 87.548 36.4913 87.5068 36.6374C88.0056 38.72 88.7447 40.7569 89.271 42.8098C90.4129 47.2786 90.9712 52.0124 92.4197 56.4287C92.7538 57.4449 95.5547 61.3817 93.5753 61.8247C92.3831 62.0918 90.6211 61.6283 89.4495 61.6717C87.2001 61.7585 84.3695 62.5508 83.9004 59.3996C83.0034 53.3756 82.294 46.8425 79.9028 41.1063C79.4497 40.017 78.7129 39.6494 77.5664 39.7796C76.1752 39.9371 76.3262 42.6545 76.3262 43.9424C76.3262 48.3108 76.1546 52.8961 77.0973 57.1549C77.333 58.2236 78.5664 60.4272 77.841 61.3611V61.3703ZM77.0378 12.9322C76.8777 18.7415 76.7175 24.5485 76.5573 30.3577C76.6305 30.4742 76.6671 30.5313 76.7404 30.6478C78.9165 30.6889 81.6877 30.6843 82.8913 28.6908C84.5732 25.9072 84.6784 21.8379 84.397 18.5474C84.2254 16.5356 83.8455 13.3295 81.6167 12.7678C81.095 12.6353 78.3696 12.5897 77.7335 12.6422C77.4978 12.6627 77.2095 12.7221 77.0401 12.9299L77.0378 12.9322Z" fill="#14000A"/>
<path d="M136.653 93.124C136.129 92.6057 136.449 89.5389 136.362 88.5638C136.165 86.3877 135.918 83.9785 134.879 82.0718C133.314 79.1991 129.152 80.108 128.22 82.8687C125.641 90.5026 126.943 100.397 127.037 108.583C127.081 112.294 126.751 116.494 127.747 119.878C128.479 122.371 132.273 124.18 134.289 122.677C137.188 120.517 136.147 113.571 136.332 109.762C136.259 109.634 136.222 109.572 136.149 109.444C134.955 108.49 131.971 111.57 131.98 107.074C131.98 106.387 132.204 105.82 132.227 105.222C132.286 103.74 131.923 102.162 132.737 100.92C135.289 100.847 137.849 100.915 140.392 100.861C141.003 100.847 141.582 100.571 142.218 100.552C146.277 100.438 144.776 105.512 144.62 107.809C144.117 115.27 144.95 123.232 144.76 130.953C144.623 131.325 144.554 131.512 144.417 131.885C141.609 133.465 139.463 132.154 139.696 128.891C136.376 133.611 128.172 134.348 123.893 130.864C120.099 127.774 118.685 122.543 118.447 117.738C117.934 107.323 118.019 96.7137 118.447 86.3603C118.76 78.7447 122.52 71.7343 130.742 70.9762C139.213 70.1952 143.627 76.6667 144.602 84.3439C144.739 85.4217 145.282 89.411 145.087 90.1098C144.522 92.1444 141.035 92.3728 139.108 92.777C138.415 92.9208 137.442 93.9096 136.653 93.1286V93.124Z" fill="#14000A"/>
<path d="M107.845 0.830838C110.44 0.396969 113.756 0.830838 116.136 1.88583C122.259 4.60093 122.678 11.5497 122.822 17.7609C123.042 27.2489 122.822 36.8351 122.579 46.2638C122.495 49.5795 122.843 52.8129 121.307 55.8934C115.527 67.4983 97.3098 62.9427 97.3579 50.0111C97.5547 39.21 97.0627 28.3975 97.3442 17.6147C97.5318 10.4194 100.037 2.13473 107.845 0.830838ZM108.987 9.94894C106.312 11.0016 105.973 14.4749 105.838 16.9571C105.337 26.1757 105.472 35.4285 105.827 44.6631C105.918 47.0265 105.909 49.6754 106.701 51.758C107.827 54.7197 112.744 54.3931 113.749 51.2236C114.143 49.9837 114.273 47.0288 114.335 45.5787C114.735 36.0405 114.721 26.3309 114.335 16.9C114.22 14.0958 113.442 8.19748 108.987 9.94894Z" fill="#14000A"/>
<path d="M228.665 58.7834C228.207 59.2857 226.177 60.7769 225.569 61.0052C220.621 62.8595 213.695 62.2772 208.393 61.6035C207.972 61.551 207.335 61.4231 207.18 60.9344C206.912 60.0873 207.747 57.0114 207.827 55.8376C208.592 44.694 207.656 33.2879 207.587 22.1557C207.562 17.97 208.232 13.6062 207.548 9.49128C207.395 8.56874 206.367 7.36532 207.123 6.42223C207.841 5.52709 210.85 6.19159 212.008 6.33089C217.912 7.04791 224.431 8.1029 228.495 12.8458C233.788 19.025 231.694 29.4356 231.683 36.8867C231.671 43.5637 233.516 53.4514 228.667 58.7834H228.665ZM216.022 54.0359C218.651 54.1866 222.511 53.7254 223.23 50.5787C224.562 44.7466 223.495 38.1221 223.514 32.1621C223.525 28.2961 224.299 24.1743 223.697 20.2832C223.374 18.1892 221.301 16.8579 219.491 16.2916C218.967 16.1272 216.308 15.5084 216.072 15.8189C216.022 16.2962 215.793 16.8351 215.788 17.2964C215.717 24.0875 215.814 30.8673 216.26 37.6562C216.18 43.1161 216.102 48.576 216.022 54.0359Z" fill="#14000A"/>
<path d="M228.436 121.556C225.001 125.737 217.054 127.395 212.457 125.18C210.232 124.109 208.262 121.677 207.658 119.281C207.004 116.694 206.56 113.525 206.676 110.905C206.772 108.738 208.743 109.291 210.216 108.951C211.168 108.731 214.289 107.546 214.891 107.861C215.69 108.279 215.237 112.225 215.344 113.326C215.628 116.21 218.237 118.635 221.193 117.007C222.722 116.164 223.564 113.42 223.516 111.826C223.228 102.212 209.672 97.9943 207.704 88.4629C205.848 79.4704 210.036 70.35 220.223 70.4939C227.491 70.5966 231.562 76.9037 231.223 83.7314C231.106 86.0812 227.637 85.878 225.964 86.3027C225.282 86.4762 224.841 87.3326 223.994 86.7069C223.276 86.1748 223.321 83.14 222.953 81.9754C222.411 80.2628 221.136 78.2145 219.175 78.4725C216.681 78.8013 215.843 81.6306 216.031 83.8205C216.811 92.877 228.738 96.4164 231.346 104.674C233.037 110.022 232.012 117.212 228.438 121.563L228.436 121.556Z" fill="#14000A"/>
<path d="M49.3564 7.24276C60.1022 4.38836 64.0243 15.0182 63.0724 23.7983C63.0427 24.0723 63.0633 24.3349 62.839 24.5496C61.688 25.3853 60.3013 25.2438 59.0999 25.5452C58.2784 25.7507 56.2258 26.5431 55.64 26.5682C53.8872 26.639 54.9398 22.1222 54.8666 20.784C54.727 18.2151 52.6973 13.0817 49.1985 15.8471C47.4594 17.224 46.8004 19.7154 46.6654 21.8071C46.2558 28.2694 46.7523 35.0538 46.6837 41.5184C46.6471 45.0099 46.2809 48.6955 46.9697 51.9769C47.5212 54.603 51.6744 57.325 53.592 53.7946C55.2831 50.6799 54.3403 47.145 54.8643 43.8225C54.9215 43.4663 55.2602 42.9388 55.5462 42.82C57.3791 42.071 59.8802 42.4684 62.0267 42.0779C62.8047 42.1898 63.1685 43.1215 63.2646 43.859C64.5392 53.516 59.3837 64.6208 48.1688 63.3968C42.0293 62.7255 38.2262 56.5326 38.0454 50.8329C37.8578 44.8798 37.9401 38.817 37.9539 32.8251C37.979 23.2639 37.8967 10.2867 49.3564 7.24276Z" fill="#14000A"/>
<path d="M134.495 40.8461C135.154 42.0997 134.483 43.4767 134.52 44.6322C134.563 46.0525 134.824 48.6055 135.206 49.9505C135.895 52.3779 137.318 53.5699 139.465 53.2502C142.636 52.7775 142.735 47.7537 142.563 45.1985C142.083 38.067 134.57 32.8081 130.984 27.3116C125.866 19.4632 124.442 1.18586 137.632 0.0806351C147.115 -0.714031 151.547 7.18924 150.84 15.7433C150.616 18.4607 148.444 17.5587 146.584 17.6272C145.689 17.6615 144.673 18.1912 143.707 17.7186C142.044 15.0948 143.847 9.37685 139.705 8.80369C134.405 8.07296 135.939 16.7161 137.417 19.3604C141.261 26.2361 148.334 31.9495 150.357 39.9875C152.931 50.2176 149.59 63.3159 136.71 61.9709C126.765 60.9319 126.55 49.9961 126.497 42.2961C126.744 40.7776 128.902 41.353 129.781 41.248C131.341 41.063 132.863 40.5218 134.495 40.8461Z" fill="#14000A"/>
<path d="M177.837 17.9988C177.338 18.5309 175.562 18.0856 174.803 18.1404C173.476 18.2363 172.146 18.8665 170.78 18.3162C169.663 15.9117 170.794 12.7558 169.167 10.7029C167.634 8.76651 164.382 9.3077 163.629 11.9064C162.393 16.172 164.956 20.4696 167.357 23.8652C171.098 29.1561 176.805 34.4425 178.247 40.9779C179.322 45.8578 179.324 52.1101 177.016 56.5881C173.56 63.2857 161.961 64.0963 157.371 58.0678C154.707 54.5694 155.139 50.4568 154.716 46.367C154.577 45.0106 153.478 43.3345 154.393 42.0009C155.135 40.9208 157.009 41.3867 158.059 41.2633C159.805 41.0601 162.027 39.7768 162.286 42.5467C162.579 45.682 161.901 49.3128 163.794 52.0964C164.874 53.6857 165.965 54.1447 167.643 53.6469C170.235 52.8751 170.455 48.7579 170.327 46.3419C169.839 37.0685 159.46 31.5995 156.3 23.2829C153.95 17.0945 153.59 7.70923 159.011 3.02116C161.947 0.481879 167.464 0.513849 170.844 1.63049C176.704 3.56464 179.276 12.2877 177.837 17.9988Z" fill="#14000A"/>
<path d="M160.24 81.1501C160.35 86.0459 160.46 90.9418 160.567 95.8377C163 96.6529 166.331 95.6071 168.828 95.3513C169.114 95.3924 169.4 95.5545 169.528 95.8491C170.006 96.9498 169.242 100.567 169.174 101.985C169.121 103.056 170.066 105.591 168.142 105.54C167.627 105.527 167.341 105.109 166.787 105.038C164.908 104.803 162.421 105.442 160.467 105.255C160.4 110.356 160.336 115.458 160.27 120.559C160.409 120.708 160.48 120.781 160.62 120.929C161.451 121.265 162.384 120.84 163.105 120.854C165.057 120.888 167.334 121.201 169.277 120.799C170.174 120.614 171.51 119.436 172.299 120.105C173.112 120.792 172.24 124.032 172.164 125.195C172.089 126.371 172.398 129.257 171.952 130.088C171.494 130.942 168.208 130.504 167.233 131.111C162.867 131.123 158.508 131.271 154.146 131.456C152.821 131.513 151.245 132.484 150.142 130.933C150.318 130.728 150.405 130.625 150.579 130.419C151.931 113.206 151.014 95.9564 151.295 78.7158C151.005 77.3549 150.959 75.9436 150.776 74.5712C150.728 74.2173 150.407 73.8633 150.368 73.434C150.247 72.1393 151.158 71.7922 152.094 71.7191C154.201 71.5524 156.453 72.0068 158.522 71.9909C162.155 71.9612 166.119 71.4086 169.764 71.662C172.746 71.8698 171.707 74.1922 171.936 76.7132C172.091 78.4235 172.457 80.1407 172.567 81.8625C171.466 83.9794 170.393 82.8102 169.018 81.8785C166.091 81.6456 163.165 81.4035 160.24 81.1546V81.1501Z" fill="#14000A"/>
<path d="M191.622 13.001C191.631 17.6137 191.642 22.2264 191.651 26.8392C194.139 27.6201 197.123 26.9648 199.5 27.4511C200.857 27.7297 199.933 31.187 199.846 32.3242C199.773 33.2741 200.081 35.7426 199.619 36.2884C198.889 36.9209 198.258 36.124 197.448 36.0258C196.567 35.9185 192.592 35.6033 192.079 35.85C191.901 35.9367 191.699 36.1788 191.651 36.3866C191.651 41.6524 191.651 46.9205 191.651 52.1863C191.844 52.8394 194.473 52.7046 195.171 52.6978C196.912 52.6795 199.155 52.6932 200.853 52.5722C201.39 52.5334 201.891 52.136 202.477 52.1315C204.612 52.1086 203.379 55.196 203.271 56.4907C203.134 58.1372 203.727 61.3752 201.731 61.7154C198.722 62.2269 195.473 61.7931 192.411 61.7017C190.047 61.6309 187.672 61.3638 185.32 61.3661C184.34 61.3661 183.489 61.9598 182.571 61.3683C181.555 60.713 181.853 59.5552 182.073 58.4774C183.505 51.4533 183.146 44.1711 183.146 36.9575C183.146 27.4032 184.487 17.3351 182.869 7.84481C182.507 5.72113 180.796 3.12019 183.791 2.95121C186.4 2.80278 189.121 3.6317 191.734 3.95368C194.066 4.2414 196.457 4.54283 198.816 4.77347C199.978 4.88764 201.576 4.18432 202.365 5.80334C202.791 6.67793 202.489 7.42464 202.585 8.31065C202.727 9.62367 203.496 13.3298 203.223 14.2638C202.752 15.876 201.255 14.4328 200.594 14.1999C200.079 14.0195 199.12 13.8687 198.521 13.7546C196.269 13.3298 193.915 13.3664 191.622 12.9987V13.001Z" fill="#14000A"/>
<path d="M49.8575 103.145C49.6286 104.634 49.9215 106.219 49.8689 107.771C49.7133 112.304 48.9536 117.182 49.9604 121.63C50.2465 122.895 51.5714 124.989 50.1778 125.414C48.29 125.989 45.3884 124.663 43.1482 124.224C41.8187 123.964 39.9263 124.544 38.9995 122.859C39.1986 120.906 40.1757 119.216 40.2993 117.141C40.3267 116.666 40.059 116.09 40.075 115.522C40.4251 102.216 40.3153 88.8685 40.3382 75.5396C40.3542 74.6193 39.5144 74.0005 39.6425 73.0277C39.8393 71.5457 41.9148 71.5891 43.1459 71.564C44.377 71.5388 45.4754 71.8448 46.5532 71.8722C51.2464 71.9841 56.0175 71.4977 60.6696 72.0663C61.5209 72.1714 62.2097 72.9546 62.4888 73.8132C62.6215 74.2243 62.3058 75.0372 62.3561 75.6355C62.5437 77.8756 63.3996 80.8282 62.7016 82.5888C62.6421 82.7395 62.0907 83.1117 61.9053 83.1734C60.2646 83.7351 60.4088 81.9882 59.4271 81.616C59.0106 81.4585 57.5461 81.237 57.0175 81.1844C54.7704 80.9629 52.0519 80.641 49.8414 81.2872C49.7705 85.5711 49.6996 89.8527 49.6309 94.1366C51.7728 93.9562 54.0153 94.2485 56.1205 94.3901C58.4431 94.5453 59.5095 93.3785 59.4225 96.9248C59.3699 99.1032 59.4706 101.43 59.0289 103.504C58.4866 106.05 56.8345 103.83 56.3402 103.784C54.1777 103.581 52.0176 103.369 49.8575 103.147V103.145Z" fill="#14000A"/>
<path d="M69.6329 71.7488C70.5162 71.7123 71.6718 71.7054 72.5322 71.7146C73.555 71.7237 77.0035 71.6986 77.4543 72.3768C78.4954 73.9433 77.182 76.9484 76.976 78.9191C76.5756 82.7463 77.0081 86.9891 76.9737 90.9944C76.9028 99.1831 76.9325 107.564 76.7655 115.656C76.7129 118.253 76.5161 120.881 76.7838 123.416C76.9257 124.754 78.3856 128.083 77.4291 128.787C76.468 129.492 75.4703 128.652 74.587 128.583C73.9738 128.536 73.4315 128.734 72.7701 128.652C71.0699 128.442 69.4361 127.983 67.7405 127.764C65.8114 127.124 67.3904 123.608 67.5643 122.372C68.7816 113.697 67.6627 104.771 67.61 96.0136C67.5711 89.3023 68.5345 82.4403 67.5666 75.7998C67.4041 74.69 66.2828 73.5642 66.8206 72.3951C67.0792 71.8379 68.9533 71.7808 69.6329 71.7534V71.7488Z" fill="#14000A"/>
</g>
<path d="M0.672 69.2617V59.2937H4.928V60.6377H2.1V63.5637H4.564V64.9077H2.1V67.8337H4.928V69.2617H0.672ZM11.5936 62.1637H10.1656V61.8417C10.1656 61.5151 10.0863 61.2351 9.92764 61.0017C9.77831 60.7591 9.52164 60.6377 9.15764 60.6377C8.96164 60.6377 8.80297 60.6751 8.68164 60.7497C8.56031 60.8244 8.46231 60.9177 8.38764 61.0297C8.31297 61.1511 8.26164 61.2911 8.23364 61.4497C8.20564 61.5991 8.19164 61.7577 8.19164 61.9257C8.19164 62.1217 8.19631 62.2851 8.20564 62.4157C8.22431 62.5464 8.26164 62.6631 8.31764 62.7657C8.37364 62.8684 8.45297 62.9571 8.55564 63.0317C8.66764 63.1064 8.81697 63.1811 9.00364 63.2557L10.0956 63.6897C10.413 63.8111 10.6696 63.9557 10.8656 64.1237C11.0616 64.2824 11.2156 64.4691 11.3276 64.6837C11.4303 64.9077 11.5003 65.1644 11.5376 65.4537C11.575 65.7337 11.5936 66.0557 11.5936 66.4197C11.5936 66.8397 11.5516 67.2317 11.4676 67.5957C11.3836 67.9504 11.2483 68.2537 11.0616 68.5057C10.8656 68.7671 10.609 68.9724 10.2916 69.1217C9.97431 69.2711 9.58697 69.3457 9.12964 69.3457C8.78431 69.3457 8.46231 69.2851 8.16364 69.1637C7.86497 69.0424 7.60831 68.8744 7.39364 68.6597C7.17897 68.4451 7.00631 68.1977 6.87564 67.9177C6.75431 67.6284 6.69364 67.3157 6.69364 66.9797V66.4477H8.12164V66.8957C8.12164 67.1571 8.19631 67.3951 8.34564 67.6097C8.50431 67.8151 8.76564 67.9177 9.12964 67.9177C9.37231 67.9177 9.55897 67.8851 9.68964 67.8197C9.82964 67.7451 9.93697 67.6424 10.0116 67.5117C10.0863 67.3811 10.1283 67.2271 10.1376 67.0497C10.1563 66.8631 10.1656 66.6577 10.1656 66.4337C10.1656 66.1724 10.1563 65.9577 10.1376 65.7897C10.119 65.6217 10.0816 65.4864 10.0256 65.3837C9.96031 65.2811 9.87164 65.1971 9.75964 65.1317C9.65697 65.0664 9.51697 64.9964 9.33964 64.9217L8.31764 64.5017C7.70164 64.2497 7.28631 63.9184 7.07164 63.5077C6.86631 63.0877 6.76364 62.5651 6.76364 61.9397C6.76364 61.5664 6.81497 61.2117 6.91764 60.8757C7.02031 60.5397 7.17431 60.2504 7.37964 60.0077C7.57564 59.7651 7.82297 59.5737 8.12164 59.4337C8.42964 59.2844 8.79364 59.2097 9.21364 59.2097C9.56831 59.2097 9.89031 59.2751 10.1796 59.4057C10.4783 59.5364 10.735 59.7091 10.9496 59.9237C11.379 60.3717 11.5936 60.8851 11.5936 61.4637V62.1637ZM14.7191 69.2617V60.6377H13.0671V59.2937H17.7991V60.6377H16.1471V69.2617H14.7191ZM18.1804 69.2617V67.8337H19.6084V69.2617H18.1804Z" fill="#14000A"/>
<path d="M251.476 69.2617V67.9177L254.052 63.0597C254.183 62.8171 254.257 62.6071 254.276 62.4297C254.295 62.2431 254.304 62.0144 254.304 61.7437C254.304 61.6224 254.299 61.4964 254.29 61.3657C254.29 61.2257 254.267 61.1044 254.22 61.0017C254.173 60.8991 254.103 60.8151 254.01 60.7497C253.917 60.6751 253.781 60.6377 253.604 60.6377C253.389 60.6377 253.217 60.6984 253.086 60.8197C252.965 60.9411 252.904 61.1184 252.904 61.3517V62.1637H251.476V61.3797C251.476 61.0811 251.532 60.8011 251.644 60.5397C251.756 60.2784 251.91 60.0497 252.106 59.8537C252.293 59.6577 252.517 59.5037 252.778 59.3917C253.039 59.2704 253.319 59.2097 253.618 59.2097C253.991 59.2097 254.309 59.2797 254.57 59.4197C254.841 59.5504 255.065 59.7324 255.242 59.9657C255.41 60.1991 255.531 60.4651 255.606 60.7637C255.69 61.0624 255.732 61.3797 255.732 61.7157C255.732 61.9584 255.727 62.1637 255.718 62.3317C255.709 62.4904 255.69 62.6444 255.662 62.7937C255.634 62.9431 255.587 63.0924 255.522 63.2417C255.457 63.3911 255.368 63.5731 255.256 63.7877L253.156 67.8337H255.732V69.2617H251.476ZM260.297 69.2617V67.7777H257.455V66.4337L259.513 59.2937H261.025L258.883 66.4337H260.297V63.5917H261.725V66.4337H262.411V67.7777H261.725V69.2617H260.297Z" fill="#14000A"/>
<path d="M89.0635 154.192C89.2132 153.731 89.8649 153.731 90.0146 154.192L90.5494 155.838C90.6163 156.044 90.8083 156.183 91.0249 156.183H92.7555C93.2399 156.183 93.4413 156.803 93.0494 157.088L91.6493 158.105C91.4741 158.232 91.4007 158.458 91.4677 158.664L92.0025 160.31C92.1521 160.771 91.6249 161.154 91.233 160.869L89.833 159.852C89.6577 159.725 89.4204 159.725 89.2452 159.852L87.8451 160.869C87.4532 161.154 86.926 160.771 87.0757 160.31L87.6104 158.664C87.6774 158.458 87.6041 158.232 87.4288 158.105L86.0287 157.088C85.6369 156.803 85.8383 156.183 86.3226 156.183H88.0532C88.2698 156.183 88.4618 156.044 88.5287 155.838L89.0635 154.192Z" fill="#14000A"/>
<path d="M168.938 163.069V152.389H171.232C171.652 152.389 172.022 152.444 172.342 152.554C172.662 152.664 172.953 152.859 173.213 153.139C173.473 153.419 173.653 153.749 173.753 154.129C173.853 154.499 173.902 155.004 173.902 155.644C173.902 156.124 173.872 156.529 173.812 156.859C173.763 157.189 173.647 157.499 173.467 157.789C173.257 158.139 172.978 158.414 172.628 158.614C172.278 158.804 171.817 158.899 171.247 158.899H170.467V163.069H168.938ZM170.467 153.829V157.459H171.202C171.512 157.459 171.753 157.414 171.923 157.324C172.093 157.234 172.218 157.109 172.298 156.949C172.378 156.799 172.423 156.614 172.433 156.394C172.453 156.174 172.463 155.929 172.463 155.659C172.463 155.409 172.458 155.174 172.448 154.954C172.438 154.724 172.393 154.524 172.312 154.354C172.233 154.184 172.112 154.054 171.952 153.964C171.792 153.874 171.562 153.829 171.262 153.829H170.467Z" fill="#14000A"/>
<path d="M160.961 154.909C160.961 154.479 161.036 154.099 161.186 153.769C161.336 153.439 161.536 153.164 161.786 152.944C162.026 152.734 162.296 152.574 162.596 152.464C162.906 152.354 163.216 152.299 163.526 152.299C163.836 152.299 164.141 152.354 164.441 152.464C164.751 152.574 165.031 152.734 165.281 152.944C165.521 153.164 165.716 153.439 165.866 153.769C166.016 154.099 166.091 154.479 166.091 154.909V160.549C166.091 160.999 166.016 161.384 165.866 161.704C165.716 162.024 165.521 162.289 165.281 162.499C165.031 162.719 164.751 162.884 164.441 162.994C164.141 163.104 163.836 163.159 163.526 163.159C163.216 163.159 162.906 163.104 162.596 162.994C162.296 162.884 162.026 162.719 161.786 162.499C161.536 162.289 161.336 162.024 161.186 161.704C161.036 161.384 160.961 160.999 160.961 160.549V154.909ZM162.491 160.549C162.491 160.919 162.591 161.194 162.791 161.374C163.001 161.544 163.246 161.629 163.526 161.629C163.806 161.629 164.046 161.544 164.246 161.374C164.456 161.194 164.561 160.919 164.561 160.549V154.909C164.561 154.539 164.456 154.269 164.246 154.099C164.046 153.919 163.806 153.829 163.526 153.829C163.246 153.829 163.001 153.919 162.791 154.099C162.591 154.269 162.491 154.539 162.491 154.909V160.549Z" fill="#14000A"/>
<path d="M153.164 163.069V152.389H154.694V156.964H156.584V152.389H158.114V163.069H156.584V158.314H154.694V163.069H153.164Z" fill="#14000A"/>
<path d="M150.52 155.464H148.99V155.119C148.99 154.769 148.905 154.469 148.735 154.219C148.575 153.959 148.3 153.829 147.91 153.829C147.7 153.829 147.53 153.869 147.4 153.949C147.27 154.029 147.165 154.129 147.085 154.249C147.005 154.379 146.95 154.529 146.92 154.699C146.89 154.859 146.875 155.029 146.875 155.209C146.875 155.419 146.88 155.594 146.89 155.734C146.91 155.874 146.95 155.999 147.01 156.109C147.07 156.219 147.155 156.314 147.265 156.394C147.385 156.474 147.545 156.554 147.745 156.634L148.915 157.099C149.255 157.229 149.53 157.384 149.74 157.564C149.95 157.734 150.115 157.934 150.235 158.164C150.345 158.404 150.42 158.679 150.46 158.989C150.5 159.289 150.52 159.634 150.52 160.024C150.52 160.474 150.475 160.894 150.385 161.284C150.295 161.664 150.15 161.989 149.95 162.259C149.74 162.539 149.465 162.759 149.125 162.919C148.785 163.079 148.37 163.159 147.88 163.159C147.51 163.159 147.165 163.094 146.845 162.964C146.525 162.834 146.25 162.654 146.02 162.424C145.79 162.194 145.605 161.929 145.465 161.629C145.335 161.319 145.27 160.984 145.27 160.624V160.054H146.8V160.534C146.8 160.814 146.88 161.069 147.04 161.299C147.21 161.519 147.49 161.629 147.88 161.629C148.14 161.629 148.34 161.594 148.48 161.524C148.63 161.444 148.745 161.334 148.825 161.194C148.905 161.054 148.95 160.889 148.96 160.699C148.98 160.499 148.99 160.279 148.99 160.039C148.99 159.759 148.98 159.529 148.96 159.349C148.94 159.169 148.9 159.024 148.84 158.914C148.77 158.804 148.675 158.714 148.555 158.644C148.445 158.574 148.295 158.499 148.105 158.419L147.01 157.969C146.35 157.699 145.905 157.344 145.675 156.904C145.455 156.454 145.345 155.894 145.345 155.224C145.345 154.824 145.4 154.444 145.51 154.084C145.62 153.724 145.785 153.414 146.005 153.154C146.215 152.894 146.48 152.689 146.8 152.539C147.13 152.379 147.52 152.299 147.97 152.299C148.35 152.299 148.695 152.369 149.005 152.509C149.325 152.649 149.6 152.834 149.83 153.064C150.29 153.544 150.52 154.094 150.52 154.714V155.464Z" fill="#14000A"/>
<path d="M139.214 153.829V157.159H140.084C140.354 157.159 140.569 157.124 140.729 157.054C140.889 156.974 141.014 156.864 141.104 156.724C141.184 156.584 141.239 156.414 141.269 156.214C141.299 156.004 141.314 155.764 141.314 155.494C141.314 155.224 141.299 154.989 141.269 154.789C141.239 154.579 141.179 154.399 141.089 154.249C140.899 153.969 140.539 153.829 140.009 153.829H139.214ZM137.684 163.069V152.389H140.144C141.944 152.389 142.844 153.434 142.844 155.524C142.844 156.154 142.744 156.689 142.544 157.129C142.354 157.569 142.014 157.924 141.524 158.194L143.174 163.069H141.554L140.129 158.509H139.214V163.069H137.684Z" fill="#14000A"/>
<path d="M130.632 163.069V152.389H135.192V153.829H132.162V156.964H134.802V158.404H132.162V161.539H135.192V163.069H130.632Z" fill="#14000A"/>
<path d="M122.745 163.069V152.389H124.98C125.47 152.389 125.885 152.464 126.225 152.614C126.575 152.764 126.86 152.964 127.08 153.214C127.3 153.464 127.455 153.754 127.545 154.084C127.645 154.404 127.695 154.739 127.695 155.089V155.479C127.695 155.769 127.67 156.014 127.62 156.214C127.58 156.414 127.515 156.589 127.425 156.739C127.255 157.019 126.995 157.259 126.645 157.459C127.005 157.629 127.27 157.879 127.44 158.209C127.61 158.539 127.695 158.989 127.695 159.559V160.159C127.695 161.099 127.465 161.819 127.005 162.319C126.555 162.819 125.83 163.069 124.83 163.069H122.745ZM124.275 158.119V161.539H124.935C125.245 161.539 125.485 161.494 125.655 161.404C125.835 161.314 125.97 161.189 126.06 161.029C126.15 160.869 126.205 160.679 126.225 160.459C126.245 160.239 126.255 159.999 126.255 159.739C126.255 159.469 126.24 159.234 126.21 159.034C126.18 158.834 126.12 158.664 126.03 158.524C125.93 158.384 125.795 158.284 125.625 158.224C125.455 158.154 125.23 158.119 124.95 158.119H124.275ZM124.275 153.829V156.769H124.965C125.475 156.769 125.815 156.644 125.985 156.394C126.165 156.134 126.255 155.759 126.255 155.269C126.255 154.789 126.155 154.429 125.955 154.189C125.765 153.949 125.415 153.829 124.905 153.829H124.275Z" fill="#14000A"/>
<path d="M116.388 153.829V157.159H117.258C117.528 157.159 117.743 157.124 117.903 157.054C118.063 156.974 118.188 156.864 118.278 156.724C118.358 156.584 118.413 156.414 118.443 156.214C118.473 156.004 118.488 155.764 118.488 155.494C118.488 155.224 118.473 154.989 118.443 154.789C118.413 154.579 118.353 154.399 118.263 154.249C118.073 153.969 117.713 153.829 117.183 153.829H116.388ZM114.858 163.069V152.389H117.318C119.118 152.389 120.018 153.434 120.018 155.524C120.018 156.154 119.918 156.689 119.718 157.129C119.528 157.569 119.188 157.924 118.698 158.194L120.348 163.069H118.728L117.303 158.509H116.388V163.069H114.858Z" fill="#14000A"/>
<path d="M110.34 159.334L109.59 155.464H109.56L108.81 159.334H110.34ZM106.56 163.069L108.945 152.389H110.22L112.605 163.069H111.075L110.625 160.774H108.54L108.09 163.069H106.56Z" fill="#14000A"/>
<path d="M99.5391 163.069V152.389H101.774C102.264 152.389 102.679 152.464 103.019 152.614C103.369 152.764 103.654 152.964 103.874 153.214C104.094 153.464 104.249 153.754 104.339 154.084C104.439 154.404 104.489 154.739 104.489 155.089V155.479C104.489 155.769 104.464 156.014 104.414 156.214C104.374 156.414 104.309 156.589 104.219 156.739C104.049 157.019 103.789 157.259 103.439 157.459C103.799 157.629 104.064 157.879 104.234 158.209C104.404 158.539 104.489 158.989 104.489 159.559V160.159C104.489 161.099 104.259 161.819 103.799 162.319C103.349 162.819 102.624 163.069 101.624 163.069H99.5391ZM101.069 158.119V161.539H101.729C102.039 161.539 102.279 161.494 102.449 161.404C102.629 161.314 102.764 161.189 102.854 161.029C102.944 160.869 102.999 160.679 103.019 160.459C103.039 160.239 103.049 159.999 103.049 159.739C103.049 159.469 103.034 159.234 103.004 159.034C102.974 158.834 102.914 158.664 102.824 158.524C102.724 158.384 102.589 158.284 102.419 158.224C102.249 158.154 102.024 158.119 101.744 158.119H101.069ZM101.069 153.829V156.769H101.759C102.269 156.769 102.609 156.644 102.779 156.394C102.959 156.134 103.049 155.759 103.049 155.269C103.049 154.789 102.949 154.429 102.749 154.189C102.559 153.949 102.209 153.829 101.699 153.829H101.069Z" fill="#14000A"/>
<path d="M183.427 154.192C183.577 153.731 184.228 153.731 184.378 154.192L184.913 155.838C184.98 156.044 185.172 156.183 185.388 156.183H187.119C187.603 156.183 187.805 156.803 187.413 157.088L186.013 158.105C185.838 158.232 185.764 158.458 185.831 158.664L186.366 160.31C186.516 160.771 185.988 161.154 185.597 160.869L184.196 159.852C184.021 159.725 183.784 159.725 183.609 159.852L182.209 160.869C181.817 161.154 181.29 160.771 181.439 160.31L181.974 158.664C182.041 158.458 181.968 158.232 181.792 158.105L180.392 157.088C180 156.803 180.202 156.183 180.686 156.183H182.417C182.633 156.183 182.825 156.044 182.892 155.838L183.427 154.192Z" fill="#14000A"/>
<defs>
<clipPath id="clip0_257_129">
<rect width="194.209" height="133.033" fill="white" transform="translate(37.9287)"/>
</clipPath>
</defs>
</svg>
