<svg width="395" height="245" viewBox="0 0 395 245" fill="none" xmlns="http://www.w3.org/2000/svg">
<g clip-path="url(#clip0_257_164)">
<path d="M155.772 137.624C155.775 144.879 155.777 152.136 155.779 159.391C155.781 162.375 155.482 165.679 156.463 168.401C156.589 168.753 157.049 168.682 157.152 169.294C157.257 169.922 157.115 170.717 156.807 171.217C156.53 171.502 155.09 171.443 154.548 171.448C152.77 171.459 150.839 171.215 149.024 171.048C148.379 170.989 148.054 171.491 147.402 170.918C145.642 169.365 147.28 166.127 147.528 164.165C148.095 159.697 147.358 154.435 147.29 149.64C147.152 139.999 147.644 130.07 147.395 120.34C147.372 119.459 147.322 118.098 147.061 117.285C146.624 115.921 144.626 113.585 147.338 113.001C149.85 112.457 153.017 112.533 155.662 112.875C155.974 112.916 156.26 112.932 156.466 113.268C160.044 124.112 163.589 134.968 167.111 145.831C167.095 137.606 167.568 129.335 167.234 121.164C167.193 120.18 167.074 118.525 166.937 117.586C166.69 115.903 164.896 113.215 166.989 112.793C167.365 112.718 168.859 112.708 169.397 112.693C170.854 112.649 172.17 112.935 173.522 112.973C174.419 112.999 176.168 112.058 176.742 113.528C177.234 114.789 176.104 116.625 175.82 117.974C174.307 125.186 175.413 132.854 175.397 140.127C175.378 149.649 175.216 159.251 175.243 168.799C175.246 169.678 175.85 171.639 174.797 172.185C174.653 172.26 172.463 172.699 172.159 172.717C171.152 172.781 168.243 172.667 167.468 172.057C166.328 171.16 165.967 167.751 165.507 166.353C162.667 157.742 159.99 149.039 157.083 140.456C156.77 139.531 156.472 138.234 155.77 137.631L155.772 137.624Z" fill="white"/>
<path d="M260.567 144.913C262.262 151.364 263.974 157.813 265.702 164.255C266.178 165.675 267.674 167.07 266.919 168.756C263.898 169.02 260.91 169.934 257.924 169.918C257.512 169.918 257.038 169.772 256.894 169.409C256.189 167.637 256.487 164.903 256.162 162.752C255.624 159.199 254.656 155.491 253.542 152.004C253.29 151.218 252.608 149.311 252.045 148.834C251.521 148.391 249.825 148.492 249.475 149.181C249.4 149.33 249.187 151.501 249.182 151.876C249.114 156.454 249.366 161.165 250.162 165.659C250.432 167.182 251.677 169.543 249.983 170.301C247.887 171.24 244.247 171.361 241.686 171.27C238.565 171.158 240.464 166.301 240.661 164.513C241.004 161.398 240.791 157.943 240.807 154.678C240.865 143.068 241.688 130.911 240.675 119.689C240.494 117.678 239.302 114.504 240.139 113.122C240.807 112.021 242.734 112.601 243.977 112.606C250.636 112.627 259.569 111.129 263.722 117.552C267.34 123.149 266.731 133.354 264.413 139.494C263.688 141.417 262.288 143.698 260.571 144.911L260.567 144.913ZM250.208 121.24C249.187 121.592 249.656 124.567 249.599 125.665C249.43 128.876 249.4 132.105 249.352 135.32C249.334 136.562 248.965 139.264 250.171 139.476C252.242 139.839 254.99 139.394 256.093 137.645C258.159 134.363 258.205 127.652 256.72 123.887C256.134 122.4 254.336 121.407 252.837 121.187C252.48 121.135 250.457 121.153 250.21 121.24H250.208Z" fill="white"/>
<path d="M140.841 102.37C140.701 102.551 140.308 102.635 140.084 102.667C137.125 103.09 134.281 103.446 131.406 103.279C129.102 103.144 130.663 100.064 130.825 98.4243C131.599 90.6307 130.894 82.5858 130.839 74.7282C130.784 67.0533 131.569 59.1934 130.846 51.482C130.683 49.7374 129.336 48.4837 130.276 46.73C132.331 45.4009 135.525 45.8006 137.811 45.5836C143.614 45.0333 150.372 43.6129 154.035 49.63C157.102 54.6675 156.639 63.0594 155.433 68.3207C154.683 71.5952 153.225 74.7807 150.607 77.2698C150.566 77.4182 150.548 77.4913 150.507 77.6374C151.006 79.72 151.745 81.7569 152.271 83.8098C153.413 88.2786 153.971 93.0124 155.42 97.4287C155.754 98.4449 158.555 102.382 156.575 102.825C155.383 103.092 153.621 102.628 152.45 102.672C150.2 102.758 147.37 103.551 146.9 100.4C146.003 94.3756 145.294 87.8425 142.903 82.1063C142.45 81.017 141.713 80.6494 140.566 80.7796C139.175 80.9371 139.326 83.6545 139.326 84.9424C139.326 89.3108 139.155 93.8961 140.097 98.1549C140.333 99.2236 141.566 101.427 140.841 102.361V102.37ZM140.038 53.9322C139.878 59.7415 139.717 65.5485 139.557 71.3577C139.631 71.4742 139.667 71.5313 139.74 71.6478C141.917 71.6889 144.688 71.6843 145.891 69.6908C147.573 66.9072 147.678 62.8379 147.397 59.5474C147.225 57.5356 146.846 54.3295 144.617 53.7678C144.095 53.6353 141.37 53.5897 140.733 53.6422C140.498 53.6627 140.209 53.7221 140.04 53.9299L140.038 53.9322Z" fill="white"/>
<path d="M199.653 134.124C199.129 133.606 199.449 130.539 199.362 129.564C199.165 127.388 198.918 124.979 197.879 123.072C196.314 120.199 192.152 121.108 191.22 123.869C188.641 131.503 189.943 141.397 190.037 149.583C190.081 153.294 189.751 157.494 190.747 160.878C191.479 163.371 195.273 165.18 197.289 163.677C200.188 161.517 199.147 154.571 199.332 150.762C199.259 150.634 199.222 150.572 199.149 150.444C197.955 149.49 194.971 152.57 194.98 148.074C194.98 147.387 195.204 146.82 195.227 146.222C195.286 144.74 194.923 143.162 195.737 141.92C198.289 141.847 200.849 141.915 203.392 141.861C204.003 141.847 204.582 141.571 205.218 141.552C209.277 141.438 207.776 146.512 207.62 148.809C207.117 156.27 207.95 164.232 207.76 171.953C207.623 172.325 207.554 172.512 207.417 172.885C204.609 174.465 202.463 173.154 202.696 169.891C199.376 174.611 191.172 175.348 186.893 171.864C183.099 168.774 181.685 163.543 181.447 158.738C180.934 148.323 181.019 137.714 181.447 127.36C181.76 119.745 185.52 112.734 193.742 111.976C202.213 111.195 206.627 117.667 207.602 125.344C207.739 126.422 208.282 130.411 208.087 131.11C207.522 133.144 204.035 133.373 202.108 133.777C201.415 133.921 200.442 134.91 199.653 134.129V134.124Z" fill="white"/>
<path d="M170.845 41.8308C173.44 41.397 176.756 41.8308 179.136 42.8858C185.259 45.6009 185.678 52.5497 185.822 58.7609C186.042 68.2489 185.822 77.8351 185.579 87.2638C185.495 90.5795 185.843 93.8129 184.307 96.8934C178.527 108.498 160.31 103.943 160.358 91.0111C160.555 80.21 160.063 69.3975 160.344 58.6147C160.532 51.4194 163.037 43.1347 170.845 41.8308ZM171.987 50.9489C169.312 52.0016 168.973 55.4749 168.838 57.9571C168.337 67.1757 168.472 76.4285 168.827 85.6631C168.918 88.0265 168.909 90.6754 169.701 92.758C170.827 95.7197 175.744 95.3931 176.749 92.2236C177.143 90.9837 177.273 88.0288 177.335 86.5787C177.735 77.0405 177.721 67.3309 177.335 57.9C177.22 55.0958 176.442 49.1975 171.987 50.9489Z" fill="white"/>
<path d="M291.665 99.7834C291.207 100.286 289.177 101.777 288.569 102.005C283.621 103.859 276.695 103.277 271.393 102.604C270.972 102.551 270.335 102.423 270.18 101.934C269.912 101.087 270.747 98.0114 270.827 96.8376C271.592 85.694 270.656 74.2879 270.587 63.1557C270.562 58.97 271.232 54.6062 270.548 50.4913C270.395 49.5687 269.367 48.3653 270.123 47.4222C270.841 46.5271 273.85 47.1916 275.008 47.3309C280.912 48.0479 287.431 49.1029 291.495 53.8458C296.788 60.025 294.694 70.4356 294.683 77.8867C294.671 84.5637 296.516 94.4514 291.667 99.7834H291.665ZM279.022 95.0359C281.651 95.1866 285.511 94.7254 286.23 91.5787C287.562 85.7466 286.495 79.1221 286.514 73.1621C286.525 69.2961 287.299 65.1743 286.697 61.2832C286.374 59.1892 284.301 57.8579 282.491 57.2916C281.967 57.1272 279.308 56.5084 279.072 56.8189C279.022 57.2962 278.793 57.8351 278.788 58.2964C278.717 65.0875 278.814 71.8673 279.26 78.6562C279.18 84.1161 279.102 89.576 279.022 95.0359Z" fill="white"/>
<path d="M291.436 162.556C288.001 166.737 280.054 168.395 275.457 166.18C273.232 165.109 271.262 162.677 270.658 160.281C270.004 157.694 269.56 154.525 269.676 151.905C269.772 149.738 271.743 150.291 273.216 149.951C274.168 149.731 277.289 148.546 277.891 148.861C278.69 149.279 278.237 153.225 278.344 154.326C278.628 157.21 281.237 159.635 284.193 158.007C285.722 157.164 286.564 154.42 286.516 152.826C286.228 143.212 272.672 138.994 270.704 129.463C268.848 120.47 273.036 111.35 283.223 111.494C290.491 111.597 294.562 117.904 294.223 124.731C294.106 127.081 290.637 126.878 288.964 127.303C288.282 127.476 287.841 128.333 286.994 127.707C286.276 127.175 286.321 124.14 285.953 122.975C285.411 121.263 284.136 119.214 282.175 119.472C279.681 119.801 278.843 122.631 279.031 124.821C279.811 133.877 291.738 137.416 294.346 145.674C296.037 151.022 295.012 158.212 291.438 162.563L291.436 162.556Z" fill="white"/>
<path d="M112.356 48.2428C123.102 45.3884 127.024 56.0182 126.072 64.7983C126.043 65.0723 126.063 65.3349 125.839 65.5496C124.688 66.3853 123.301 66.2438 122.1 66.5452C121.278 66.7507 119.226 67.5431 118.64 67.5682C116.887 67.639 117.94 63.1222 117.867 61.784C117.727 59.2151 115.697 54.0817 112.199 56.8471C110.459 58.224 109.8 60.7154 109.665 62.8071C109.256 69.2694 109.752 76.0538 109.684 82.5184C109.647 86.0099 109.281 89.6955 109.97 92.9769C110.521 95.603 114.674 98.325 116.592 94.7946C118.283 91.6799 117.34 88.145 117.864 84.8225C117.922 84.4663 118.26 83.9388 118.546 83.82C120.379 83.071 122.88 83.4684 125.027 83.0779C125.805 83.1898 126.169 84.1215 126.265 84.859C127.539 94.516 122.384 105.621 111.169 104.397C105.029 103.725 101.226 97.5326 101.045 91.8329C100.858 85.8798 100.94 79.817 100.954 73.8251C100.979 64.2639 100.897 51.2867 112.356 48.2428Z" fill="white"/>
<path d="M197.495 81.8461C198.154 83.0997 197.483 84.4767 197.52 85.6322C197.563 87.0525 197.824 89.6055 198.206 90.9505C198.895 93.3779 200.318 94.5699 202.465 94.2502C205.636 93.7775 205.735 88.7537 205.563 86.1985C205.083 79.067 197.57 73.8081 193.984 68.3116C188.866 60.4632 187.442 42.1859 200.632 41.0806C210.115 40.286 214.547 48.1892 213.84 56.7433C213.616 59.4607 211.444 58.5587 209.584 58.6272C208.689 58.6615 207.673 59.1912 206.707 58.7186C205.044 56.0948 206.847 50.3769 202.705 49.8037C197.405 49.073 198.939 57.7161 200.417 60.3604C204.261 67.2361 211.334 72.9495 213.357 80.9875C215.931 91.2176 212.59 104.316 199.71 102.971C189.765 101.932 189.55 90.9961 189.497 83.2961C189.744 81.7776 191.902 82.353 192.781 82.248C194.341 82.063 195.863 81.5218 197.495 81.8461Z" fill="white"/>
<path d="M240.837 58.9988C240.338 59.5309 238.562 59.0856 237.803 59.1404C236.476 59.2363 235.146 59.8665 233.78 59.3162C232.663 56.9117 233.794 53.7558 232.167 51.7029C230.634 49.7665 227.382 50.3077 226.629 52.9064C225.393 57.172 227.956 61.4696 230.357 64.8652C234.098 70.1561 239.805 75.4425 241.247 81.9779C242.322 86.8578 242.324 93.1101 240.016 97.5881C236.56 104.286 224.961 105.096 220.371 99.0678C217.707 95.5694 218.139 91.4568 217.716 87.367C217.577 86.0106 216.478 84.3345 217.393 83.0009C218.135 81.9208 220.009 82.3867 221.059 82.2633C222.805 82.0601 225.027 80.7768 225.286 83.5467C225.579 86.682 224.901 90.3128 226.794 93.0964C227.874 94.6857 228.965 95.1447 230.643 94.6469C233.235 93.8751 233.455 89.7579 233.327 87.3419C232.839 78.0685 222.46 72.5995 219.3 64.2829C216.95 58.0945 216.59 48.7092 222.011 44.0212C224.947 41.4819 230.464 41.5138 233.844 42.6305C239.704 44.5646 242.276 53.2877 240.837 58.9988Z" fill="white"/>
<path d="M223.24 122.15C223.35 127.046 223.46 131.942 223.567 136.838C226 137.653 229.331 136.607 231.828 136.351C232.114 136.392 232.4 136.555 232.528 136.849C233.006 137.95 232.242 141.567 232.174 142.985C232.121 144.056 233.066 146.591 231.142 146.54C230.627 146.527 230.341 146.109 229.787 146.038C227.908 145.803 225.421 146.442 223.467 146.255C223.4 151.356 223.336 156.458 223.27 161.559C223.409 161.708 223.48 161.781 223.62 161.929C224.451 162.265 225.384 161.84 226.105 161.854C228.057 161.888 230.334 162.201 232.277 161.799C233.174 161.614 234.51 160.436 235.299 161.105C236.112 161.792 235.24 165.032 235.164 166.195C235.089 167.371 235.398 170.257 234.952 171.088C234.494 171.942 231.208 171.504 230.233 172.111C225.867 172.123 221.508 172.271 217.146 172.456C215.821 172.513 214.245 173.484 213.142 171.933C213.318 171.728 213.405 171.625 213.579 171.419C214.931 154.206 214.014 136.956 214.295 119.716C214.005 118.355 213.959 116.944 213.776 115.571C213.728 115.217 213.407 114.863 213.368 114.434C213.247 113.139 214.158 112.792 215.094 112.719C217.201 112.552 219.453 113.007 221.522 112.991C225.155 112.961 229.119 112.409 232.764 112.662C235.746 112.87 234.707 115.192 234.936 117.713C235.091 119.424 235.457 121.141 235.567 122.863C234.466 124.979 233.393 123.81 232.018 122.879C229.091 122.646 226.165 122.404 223.24 122.155V122.15Z" fill="white"/>
<path d="M254.622 54.001C254.631 58.6137 254.642 63.2264 254.651 67.8392C257.139 68.6201 260.123 67.9648 262.5 68.4511C263.857 68.7297 262.933 72.187 262.846 73.3242C262.773 74.2741 263.081 76.7426 262.619 77.2884C261.889 77.9209 261.258 77.124 260.448 77.0258C259.567 76.9185 255.592 76.6033 255.079 76.85C254.901 76.9367 254.699 77.1788 254.651 77.3866C254.651 82.6524 254.651 87.9205 254.651 93.1863C254.844 93.8394 257.473 93.7046 258.171 93.6978C259.912 93.6795 262.155 93.6932 263.853 93.5722C264.39 93.5334 264.891 93.136 265.477 93.1315C267.612 93.1086 266.379 96.196 266.271 97.4907C266.134 99.1372 266.727 102.375 264.731 102.715C261.722 103.227 258.473 102.793 255.411 102.702C253.047 102.631 250.672 102.364 248.32 102.366C247.34 102.366 246.489 102.96 245.571 102.368C244.555 101.713 244.853 100.555 245.073 99.4774C246.505 92.4533 246.146 85.1711 246.146 77.9575C246.146 68.4032 247.487 58.3351 245.869 48.8448C245.507 46.7211 243.796 44.1202 246.791 43.9512C249.4 43.8028 252.121 44.6317 254.734 44.9537C257.066 45.2414 259.457 45.5428 261.816 45.7735C262.978 45.8876 264.576 45.1843 265.365 46.8033C265.791 47.6779 265.489 48.4246 265.585 49.3106C265.727 50.6237 266.496 54.3298 266.223 55.2638C265.752 56.876 264.255 55.4328 263.594 55.1999C263.079 55.0195 262.12 54.8687 261.521 54.7546C259.269 54.3298 256.915 54.3664 254.622 53.9987V54.001Z" fill="white"/>
<path d="M112.857 144.145C112.629 145.634 112.922 147.219 112.869 148.771C112.713 153.304 111.954 158.182 112.96 162.63C113.246 163.895 114.571 165.989 113.178 166.414C111.29 166.989 108.388 165.663 106.148 165.224C104.819 164.964 102.926 165.544 102 163.859C102.199 161.906 103.176 160.216 103.299 158.141C103.327 157.666 103.059 157.09 103.075 156.522C103.425 143.216 103.315 129.868 103.338 116.54C103.354 115.619 102.514 115 102.643 114.028C102.839 112.546 104.915 112.589 106.146 112.564C107.377 112.539 108.475 112.845 109.553 112.872C114.246 112.984 119.018 112.498 123.67 113.066C124.521 113.171 125.21 113.955 125.489 114.813C125.622 115.224 125.306 116.037 125.356 116.635C125.544 118.876 126.4 121.828 125.702 123.589C125.642 123.74 125.091 124.112 124.905 124.173C123.265 124.735 123.409 122.988 122.427 122.616C122.011 122.458 120.546 122.237 120.018 122.184C117.77 121.963 115.052 121.641 112.841 122.287C112.77 126.571 112.7 130.853 112.631 135.137C114.773 134.956 117.015 135.248 119.121 135.39C121.443 135.545 122.509 134.378 122.423 137.925C122.37 140.103 122.471 142.43 122.029 144.504C121.487 147.05 119.834 144.83 119.34 144.784C117.178 144.581 115.018 144.369 112.857 144.147V144.145Z" fill="white"/>
<path d="M132.633 112.749C133.516 112.712 134.672 112.705 135.532 112.715C136.555 112.724 140.003 112.699 140.454 113.377C141.495 114.943 140.182 117.948 139.976 119.919C139.576 123.746 140.008 127.989 139.974 131.994C139.903 140.183 139.933 148.564 139.765 156.656C139.713 159.253 139.516 161.881 139.784 164.416C139.926 165.754 141.386 169.083 140.429 169.787C139.468 170.492 138.47 169.652 137.587 169.583C136.974 169.536 136.431 169.734 135.77 169.652C134.07 169.442 132.436 168.983 130.74 168.764C128.811 168.124 130.39 164.608 130.564 163.372C131.782 154.697 130.663 145.771 130.61 137.014C130.571 130.302 131.535 123.44 130.567 116.8C130.404 115.69 129.283 114.564 129.821 113.395C130.079 112.838 131.953 112.781 132.633 112.753V112.749Z" fill="white"/>
</g>
<path d="M63.672 110.262V100.294H67.928V101.638H65.1V104.564H67.564V105.908H65.1V108.834H67.928V110.262H63.672ZM74.5936 103.164H73.1656V102.842C73.1656 102.515 73.0863 102.235 72.9276 102.002C72.7783 101.759 72.5216 101.638 72.1576 101.638C71.9616 101.638 71.803 101.675 71.6816 101.75C71.5603 101.824 71.4623 101.918 71.3876 102.03C71.313 102.151 71.2616 102.291 71.2336 102.45C71.2056 102.599 71.1916 102.758 71.1916 102.926C71.1916 103.122 71.1963 103.285 71.2056 103.416C71.2243 103.546 71.2616 103.663 71.3176 103.766C71.3736 103.868 71.453 103.957 71.5556 104.032C71.6676 104.106 71.817 104.181 72.0036 104.256L73.0956 104.69C73.413 104.811 73.6696 104.956 73.8656 105.124C74.0616 105.282 74.2156 105.469 74.3276 105.684C74.4303 105.908 74.5003 106.164 74.5376 106.454C74.575 106.734 74.5936 107.056 74.5936 107.42C74.5936 107.84 74.5516 108.232 74.4676 108.596C74.3836 108.95 74.2483 109.254 74.0616 109.506C73.8656 109.767 73.609 109.972 73.2916 110.122C72.9743 110.271 72.587 110.346 72.1296 110.346C71.7843 110.346 71.4623 110.285 71.1636 110.164C70.865 110.042 70.6083 109.874 70.3936 109.66C70.179 109.445 70.0063 109.198 69.8756 108.918C69.7543 108.628 69.6936 108.316 69.6936 107.98V107.448H71.1216V107.896C71.1216 108.157 71.1963 108.395 71.3456 108.61C71.5043 108.815 71.7656 108.918 72.1296 108.918C72.3723 108.918 72.559 108.885 72.6896 108.82C72.8296 108.745 72.937 108.642 73.0116 108.512C73.0863 108.381 73.1283 108.227 73.1376 108.05C73.1563 107.863 73.1656 107.658 73.1656 107.434C73.1656 107.172 73.1563 106.958 73.1376 106.79C73.119 106.622 73.0816 106.486 73.0256 106.384C72.9603 106.281 72.8716 106.197 72.7596 106.132C72.657 106.066 72.517 105.996 72.3396 105.922L71.3176 105.502C70.7016 105.25 70.2863 104.918 70.0716 104.508C69.8663 104.088 69.7636 103.565 69.7636 102.94C69.7636 102.566 69.815 102.212 69.9176 101.876C70.0203 101.54 70.1743 101.25 70.3796 101.008C70.5756 100.765 70.823 100.574 71.1216 100.434C71.4296 100.284 71.7936 100.21 72.2136 100.21C72.5683 100.21 72.8903 100.275 73.1796 100.406C73.4783 100.536 73.735 100.709 73.9496 100.924C74.379 101.372 74.5936 101.885 74.5936 102.464V103.164ZM77.7191 110.262V101.638H76.0671V100.294H80.7991V101.638H79.1471V110.262H77.7191ZM81.1804 110.262V108.834H82.6084V110.262H81.1804Z" fill="white"/>
<path d="M314.476 110.262V108.918L317.052 104.06C317.183 103.817 317.257 103.607 317.276 103.43C317.295 103.243 317.304 103.014 317.304 102.744C317.304 102.622 317.299 102.496 317.29 102.366C317.29 102.226 317.267 102.104 317.22 102.002C317.173 101.899 317.103 101.815 317.01 101.75C316.917 101.675 316.781 101.638 316.604 101.638C316.389 101.638 316.217 101.698 316.086 101.82C315.965 101.941 315.904 102.118 315.904 102.352V103.164H314.476V102.38C314.476 102.081 314.532 101.801 314.644 101.54C314.756 101.278 314.91 101.05 315.106 100.854C315.293 100.658 315.517 100.504 315.778 100.392C316.039 100.27 316.319 100.21 316.618 100.21C316.991 100.21 317.309 100.28 317.57 100.42C317.841 100.55 318.065 100.732 318.242 100.966C318.41 101.199 318.531 101.465 318.606 101.764C318.69 102.062 318.732 102.38 318.732 102.716C318.732 102.958 318.727 103.164 318.718 103.332C318.709 103.49 318.69 103.644 318.662 103.794C318.634 103.943 318.587 104.092 318.522 104.242C318.457 104.391 318.368 104.573 318.256 104.788L316.156 108.834H318.732V110.262H314.476ZM323.297 110.262V108.778H320.455V107.434L322.513 100.294H324.025L321.883 107.434H323.297V104.592H324.725V107.434H325.411V108.778H324.725V110.262H323.297Z" fill="white"/>
<path d="M152.064 195.192C152.213 194.731 152.865 194.731 153.015 195.192L153.549 196.838C153.616 197.044 153.808 197.183 154.025 197.183H155.756C156.24 197.183 156.441 197.803 156.049 198.088L154.649 199.105C154.474 199.232 154.401 199.458 154.468 199.664L155.002 201.31C155.152 201.771 154.625 202.154 154.233 201.869L152.833 200.852C152.658 200.725 152.42 200.725 152.245 200.852L150.845 201.869C150.453 202.154 149.926 201.771 150.076 201.31L150.61 199.664C150.677 199.458 150.604 199.232 150.429 199.105L149.029 198.088C148.637 197.803 148.838 197.183 149.323 197.183H151.053C151.27 197.183 151.462 197.044 151.529 196.838L152.064 195.192Z" fill="white"/>
<path d="M231.938 204.069V193.389H234.232C234.652 193.389 235.022 193.444 235.342 193.554C235.662 193.664 235.953 193.859 236.213 194.139C236.473 194.419 236.653 194.749 236.753 195.129C236.853 195.499 236.902 196.004 236.902 196.644C236.902 197.124 236.872 197.529 236.812 197.859C236.763 198.189 236.647 198.499 236.467 198.789C236.257 199.139 235.978 199.414 235.628 199.614C235.278 199.804 234.817 199.899 234.247 199.899H233.467V204.069H231.938ZM233.467 194.829V198.459H234.202C234.512 198.459 234.753 198.414 234.923 198.324C235.093 198.234 235.218 198.109 235.298 197.949C235.378 197.799 235.423 197.614 235.433 197.394C235.453 197.174 235.463 196.929 235.463 196.659C235.463 196.409 235.458 196.174 235.448 195.954C235.438 195.724 235.393 195.524 235.312 195.354C235.233 195.184 235.112 195.054 234.952 194.964C234.792 194.874 234.562 194.829 234.262 194.829H233.467Z" fill="white"/>
<path d="M223.961 195.909C223.961 195.479 224.036 195.099 224.186 194.769C224.336 194.439 224.536 194.164 224.786 193.944C225.026 193.734 225.296 193.574 225.596 193.464C225.906 193.354 226.216 193.299 226.526 193.299C226.836 193.299 227.141 193.354 227.441 193.464C227.751 193.574 228.031 193.734 228.281 193.944C228.521 194.164 228.716 194.439 228.866 194.769C229.016 195.099 229.091 195.479 229.091 195.909V201.549C229.091 201.999 229.016 202.384 228.866 202.704C228.716 203.024 228.521 203.289 228.281 203.499C228.031 203.719 227.751 203.884 227.441 203.994C227.141 204.104 226.836 204.159 226.526 204.159C226.216 204.159 225.906 204.104 225.596 203.994C225.296 203.884 225.026 203.719 224.786 203.499C224.536 203.289 224.336 203.024 224.186 202.704C224.036 202.384 223.961 201.999 223.961 201.549V195.909ZM225.491 201.549C225.491 201.919 225.591 202.194 225.791 202.374C226.001 202.544 226.246 202.629 226.526 202.629C226.806 202.629 227.046 202.544 227.246 202.374C227.456 202.194 227.561 201.919 227.561 201.549V195.909C227.561 195.539 227.456 195.269 227.246 195.099C227.046 194.919 226.806 194.829 226.526 194.829C226.246 194.829 226.001 194.919 225.791 195.099C225.591 195.269 225.491 195.539 225.491 195.909V201.549Z" fill="white"/>
<path d="M216.164 204.069V193.389H217.694V197.964H219.584V193.389H221.114V204.069H219.584V199.314H217.694V204.069H216.164Z" fill="white"/>
<path d="M213.52 196.464H211.99V196.119C211.99 195.769 211.905 195.469 211.735 195.219C211.575 194.959 211.3 194.829 210.91 194.829C210.7 194.829 210.53 194.869 210.4 194.949C210.27 195.029 210.165 195.129 210.085 195.249C210.005 195.379 209.95 195.529 209.92 195.699C209.89 195.859 209.875 196.029 209.875 196.209C209.875 196.419 209.88 196.594 209.89 196.734C209.91 196.874 209.95 196.999 210.01 197.109C210.07 197.219 210.155 197.314 210.265 197.394C210.385 197.474 210.545 197.554 210.745 197.634L211.915 198.099C212.255 198.229 212.53 198.384 212.74 198.564C212.95 198.734 213.115 198.934 213.235 199.164C213.345 199.404 213.42 199.679 213.46 199.989C213.5 200.289 213.52 200.634 213.52 201.024C213.52 201.474 213.475 201.894 213.385 202.284C213.295 202.664 213.15 202.989 212.95 203.259C212.74 203.539 212.465 203.759 212.125 203.919C211.785 204.079 211.37 204.159 210.88 204.159C210.51 204.159 210.165 204.094 209.845 203.964C209.525 203.834 209.25 203.654 209.02 203.424C208.79 203.194 208.605 202.929 208.465 202.629C208.335 202.319 208.27 201.984 208.27 201.624V201.054H209.8V201.534C209.8 201.814 209.88 202.069 210.04 202.299C210.21 202.519 210.49 202.629 210.88 202.629C211.14 202.629 211.34 202.594 211.48 202.524C211.63 202.444 211.745 202.334 211.825 202.194C211.905 202.054 211.95 201.889 211.96 201.699C211.98 201.499 211.99 201.279 211.99 201.039C211.99 200.759 211.98 200.529 211.96 200.349C211.94 200.169 211.9 200.024 211.84 199.914C211.77 199.804 211.675 199.714 211.555 199.644C211.445 199.574 211.295 199.499 211.105 199.419L210.01 198.969C209.35 198.699 208.905 198.344 208.675 197.904C208.455 197.454 208.345 196.894 208.345 196.224C208.345 195.824 208.4 195.444 208.51 195.084C208.62 194.724 208.785 194.414 209.005 194.154C209.215 193.894 209.48 193.689 209.8 193.539C210.13 193.379 210.52 193.299 210.97 193.299C211.35 193.299 211.695 193.369 212.005 193.509C212.325 193.649 212.6 193.834 212.83 194.064C213.29 194.544 213.52 195.094 213.52 195.714V196.464Z" fill="white"/>
<path d="M202.214 194.829V198.159H203.084C203.354 198.159 203.569 198.124 203.729 198.054C203.889 197.974 204.014 197.864 204.104 197.724C204.184 197.584 204.239 197.414 204.269 197.214C204.299 197.004 204.314 196.764 204.314 196.494C204.314 196.224 204.299 195.989 204.269 195.789C204.239 195.579 204.179 195.399 204.089 195.249C203.899 194.969 203.539 194.829 203.009 194.829H202.214ZM200.684 204.069V193.389H203.144C204.944 193.389 205.844 194.434 205.844 196.524C205.844 197.154 205.744 197.689 205.544 198.129C205.354 198.569 205.014 198.924 204.524 199.194L206.174 204.069H204.554L203.129 199.509H202.214V204.069H200.684Z" fill="white"/>
<path d="M193.632 204.069V193.389H198.192V194.829H195.162V197.964H197.802V199.404H195.162V202.539H198.192V204.069H193.632Z" fill="white"/>
<path d="M185.745 204.069V193.389H187.98C188.47 193.389 188.885 193.464 189.225 193.614C189.575 193.764 189.86 193.964 190.08 194.214C190.3 194.464 190.455 194.754 190.545 195.084C190.645 195.404 190.695 195.739 190.695 196.089V196.479C190.695 196.769 190.67 197.014 190.62 197.214C190.58 197.414 190.515 197.589 190.425 197.739C190.255 198.019 189.995 198.259 189.645 198.459C190.005 198.629 190.27 198.879 190.44 199.209C190.61 199.539 190.695 199.989 190.695 200.559V201.159C190.695 202.099 190.465 202.819 190.005 203.319C189.555 203.819 188.83 204.069 187.83 204.069H185.745ZM187.275 199.119V202.539H187.935C188.245 202.539 188.485 202.494 188.655 202.404C188.835 202.314 188.97 202.189 189.06 202.029C189.15 201.869 189.205 201.679 189.225 201.459C189.245 201.239 189.255 200.999 189.255 200.739C189.255 200.469 189.24 200.234 189.21 200.034C189.18 199.834 189.12 199.664 189.03 199.524C188.93 199.384 188.795 199.284 188.625 199.224C188.455 199.154 188.23 199.119 187.95 199.119H187.275ZM187.275 194.829V197.769H187.965C188.475 197.769 188.815 197.644 188.985 197.394C189.165 197.134 189.255 196.759 189.255 196.269C189.255 195.789 189.155 195.429 188.955 195.189C188.765 194.949 188.415 194.829 187.905 194.829H187.275Z" fill="white"/>
<path d="M179.388 194.829V198.159H180.258C180.528 198.159 180.743 198.124 180.903 198.054C181.063 197.974 181.188 197.864 181.278 197.724C181.358 197.584 181.413 197.414 181.443 197.214C181.473 197.004 181.488 196.764 181.488 196.494C181.488 196.224 181.473 195.989 181.443 195.789C181.413 195.579 181.353 195.399 181.263 195.249C181.073 194.969 180.713 194.829 180.183 194.829H179.388ZM177.858 204.069V193.389H180.318C182.118 193.389 183.018 194.434 183.018 196.524C183.018 197.154 182.918 197.689 182.718 198.129C182.528 198.569 182.188 198.924 181.698 199.194L183.348 204.069H181.728L180.303 199.509H179.388V204.069H177.858Z" fill="white"/>
<path d="M173.34 200.334L172.59 196.464H172.56L171.81 200.334H173.34ZM169.56 204.069L171.945 193.389H173.22L175.605 204.069H174.075L173.625 201.774H171.54L171.09 204.069H169.56Z" fill="white"/>
<path d="M162.539 204.069V193.389H164.774C165.264 193.389 165.679 193.464 166.019 193.614C166.369 193.764 166.654 193.964 166.874 194.214C167.094 194.464 167.249 194.754 167.339 195.084C167.439 195.404 167.489 195.739 167.489 196.089V196.479C167.489 196.769 167.464 197.014 167.414 197.214C167.374 197.414 167.309 197.589 167.219 197.739C167.049 198.019 166.789 198.259 166.439 198.459C166.799 198.629 167.064 198.879 167.234 199.209C167.404 199.539 167.489 199.989 167.489 200.559V201.159C167.489 202.099 167.259 202.819 166.799 203.319C166.349 203.819 165.624 204.069 164.624 204.069H162.539ZM164.069 199.119V202.539H164.729C165.039 202.539 165.279 202.494 165.449 202.404C165.629 202.314 165.764 202.189 165.854 202.029C165.944 201.869 165.999 201.679 166.019 201.459C166.039 201.239 166.049 200.999 166.049 200.739C166.049 200.469 166.034 200.234 166.004 200.034C165.974 199.834 165.914 199.664 165.824 199.524C165.724 199.384 165.589 199.284 165.419 199.224C165.249 199.154 165.024 199.119 164.744 199.119H164.069ZM164.069 194.829V197.769H164.759C165.269 197.769 165.609 197.644 165.779 197.394C165.959 197.134 166.049 196.759 166.049 196.269C166.049 195.789 165.949 195.429 165.749 195.189C165.559 194.949 165.209 194.829 164.699 194.829H164.069Z" fill="white"/>
<path d="M246.427 195.192C246.577 194.731 247.228 194.731 247.378 195.192L247.913 196.838C247.98 197.044 248.172 197.183 248.388 197.183H250.119C250.603 197.183 250.805 197.803 250.413 198.088L249.013 199.105C248.838 199.232 248.764 199.458 248.831 199.664L249.366 201.31C249.516 201.771 248.988 202.154 248.597 201.869L247.196 200.852C247.021 200.725 246.784 200.725 246.609 200.852L245.209 201.869C244.817 202.154 244.29 201.771 244.439 201.31L244.974 199.664C245.041 199.458 244.968 199.232 244.792 199.105L243.392 198.088C243 197.803 243.202 197.183 243.686 197.183H245.417C245.633 197.183 245.825 197.044 245.892 196.838L246.427 195.192Z" fill="white"/>
<defs>
<clipPath id="clip0_257_164">
<rect width="194.209" height="133.033" fill="white" transform="translate(100.929 41)"/>
</clipPath>
</defs>
</svg>
